<?xml version="1.0" encoding="UTF-8" standalone="no"?>
<!-- Created with Inkscape (http://www.inkscape.org/) -->

<svg
   xmlns:dc="http://purl.org/dc/elements/1.1/"
   xmlns:cc="http://creativecommons.org/ns#"
   xmlns:rdf="http://www.w3.org/1999/02/22-rdf-syntax-ns#"
   xmlns:svg="http://www.w3.org/2000/svg"
   xmlns="http://www.w3.org/2000/svg"
   xmlns:sodipodi="http://sodipodi.sourceforge.net/DTD/sodipodi-0.dtd"
   xmlns:inkscape="http://www.inkscape.org/namespaces/inkscape"
   width="51"
   height="51"
   id="svg4916"
   version="1.1"
   inkscape:version="0.48.2 r9819"
   sodipodi:docname="apple.svg"
   inkscape:export-filename="C:\Users\simon\PERSO\projects\orchard\orchard-ui\src\main\resources\graphics\apple.png"
   inkscape:export-xdpi="225.88235"
   inkscape:export-ydpi="225.88235">
  <defs
     id="defs4918">
    <clipPath
       clipPathUnits="userSpaceOnUse"
       id="clipPath5121">
      <path
         inkscape:connector-curvature="0"
         d="m 415.98,3353.26 c 3.278,-5.05 5.813,-23.67 4.422,-33.73 26.121,9.87 61.262,1.82 76.672,-6.09 -17.781,44.7 -59.539,46.58 -81.094,39.82 l 0,0"
         clip-rule="evenodd"
         id="path5123" />
    </clipPath>
    <radialGradient
       fx="0"
       fy="0"
       cx="0"
       cy="0"
       r="0.467033"
       gradientUnits="userSpaceOnUse"
       gradientTransform="matrix(10.4764,-0.569379,-0.569379,-10.4764,41.6827,333.462)"
       spreadMethod="pad"
       id="radialGradient5125">
      <stop
         style="stop-opacity:1;stop-color:#ffffff"
         offset="0"
         id="stop5127" />
      <stop
         style="stop-opacity:1;stop-color:#f79c95"
         offset="1"
         id="stop5129" />
    </radialGradient>
    <clipPath
       clipPathUnits="userSpaceOnUse"
       id="clipPath5105">
      <path
         inkscape:connector-curvature="0"
         d="m 754.086,3289.62 c -0.52,11.58 -12.633,28.38 -19.867,32.98 16.554,3.58 30.422,12.01 42.621,30.23 12.473,-19.09 0.215,-55.59 -22.754,-63.21 l 0,0"
         clip-rule="evenodd"
         id="path5107" />
    </clipPath>
    <radialGradient
       fx="0"
       fy="0"
       cx="0"
       cy="0"
       r="1"
       gradientUnits="userSpaceOnUse"
       gradientTransform="matrix(4.06211,-3.12475,-3.12475,-4.06211,76.0708,331.71)"
       spreadMethod="pad"
       id="radialGradient5109">
      <stop
         style="stop-opacity:1;stop-color:#ffffff"
         offset="0"
         id="stop5111" />
      <stop
         style="stop-opacity:1;stop-color:#f79c95"
         offset="1"
         id="stop5113" />
    </radialGradient>
    <clipPath
       clipPathUnits="userSpaceOnUse"
       id="clipPath5089">
      <path
         inkscape:connector-curvature="0"
         d="m 548.813,3715.12 c 15.378,-23.3 47.679,-28.86 75.839,-44.78 2.414,-1.36 4.782,-2.8 7.149,-4.24 183.199,-111.3 255.816,-215.15 219.211,-300.96 43.515,118.83 -133.949,249.67 -224.707,291.73 -25.856,11.98 -63.352,13.57 -92.301,36.74 -5.883,4.73 -15.453,15.82 -8.824,23.52 4.902,5.66 16.687,6.54 23.633,-2.01 l 0,0"
         clip-rule="evenodd"
         id="path5091" />
    </clipPath>
    <linearGradient
       x1="0"
       y1="0"
       x2="0.505494"
       y2="0"
       gradientUnits="userSpaceOnUse"
       gradientTransform="matrix(33.7275,0,0,-39.8535,52.293,374.367)"
       spreadMethod="pad"
       id="linearGradient5093">
      <stop
         style="stop-opacity:1;stop-color:#979524"
         offset="0"
         id="stop5095" />
      <stop
         style="stop-opacity:1;stop-color:#77bc2d"
         offset="1"
         id="stop5097" />
    </linearGradient>
    <clipPath
       clipPathUnits="userSpaceOnUse"
       id="clipPath5073">
      <path
         inkscape:connector-curvature="0"
         d="m 850.121,3363.75 c -0.258,0.65 -5.512,-0.48 -9.199,1.78 l 0,0 c -1.309,-0.39 -2.606,-0.6 -3.918,-0.6 l 0,0 c -4.449,-0.02 -8.652,2.39 -10.293,6.48 l 0,0 c -0.75,-0.18 -1.555,-0.34 -2.535,-0.37 l 0,0 c -3.625,0.13 -6.645,2.63 -12.59,12.34 l 0,0 c -0.352,-0.05 -0.723,-0.07 -1.063,-0.07 l 0,0 c -6.582,0.22 -11.945,6.99 -17.765,16.34 l 0,0 c -6.254,0.92 -10.488,8.48 -15.043,18.57 l 0,0 c -5.664,0.84 -10.992,6.57 -17.332,18.23 l 0,0 c -0.254,-0.02 -0.543,-0.05 -0.84,-0.05 l 0,0 c -5.754,0.27 -11.012,6.43 -18.141,19.81 l 0,0 c -0.101,0 -0.214,0 -0.316,0 l 0,0 c -5.606,0.31 -10.949,7 -17.672,16.28 l 0,0 c -4.918,5.49 -10.191,12.16 -16.351,21.51 l 0,0 c -5.418,1.35 -11.145,5.76 -19.59,23.86 l 0,0 c -9.317,0.43 -15.223,11.51 -20.168,26.77 l 0,0 c -11.293,5.78 -15.571,20.52 -17.633,37.7 l 0,0 c -8.406,4.65 -13.18,17.59 -14.242,44.38 l 0,0 c -10.703,4.68 -8.774,26.27 -12.68,40.4 l 0,0 -0.215,0.93 0.688,0.66 c 6.523,6.24 13.039,9.64 22.59,11.72 l 0,0 c -0.055,0.28 -0.075,0.58 -0.075,0.87 l 0,0 c 0.289,5.22 5.45,7.98 21.453,8 l 0,0 c 0.309,0 0.586,0 0.895,0 l 0,0 c 3.793,2 9.57,4.94 15.832,4.97 l 0,0 c 1.82,0 3.703,-0.28 5.551,-0.92 l 0,0 c 2.976,0.17 5.73,0.25 8.273,0.25 l 0,0 c 13.117,-0.05 20.434,-1.96 24.164,-5.87 l 0,0 c 17.137,-2.26 24.629,-4.85 27.578,-9.07 l 0,0 c 11.661,-1.93 17.485,-3.49 20.786,-5.02 l 0,0 c 2.777,-1.17 3.796,-2.99 4.273,-4.19 l 0,0 c 11.902,-4.53 21.629,-9.31 24.102,-16.87 l 0,0 c 19.589,-9.12 22.578,-14.56 23.293,-19.43 l 0,0 c 10.246,-5.69 19.675,-11.32 20.382,-19.56 l 0,0 c 12.692,-10.4 19.375,-17.88 19.59,-24.29 l 0,0 c 0,-0.72 -0.113,-1.4 -0.293,-2.06 l 0,0 c 5.375,-8.03 10.043,-15.69 10.137,-22.37 l 0,0 c 0,-1.33 -0.231,-2.63 -0.68,-3.86 l 0,0 c 5.129,-8.05 9.563,-16.04 9.606,-23.77 l 0,0 c 0,-1.65 -0.219,-3.31 -0.68,-4.91 l 0,0 c 2.52,-9.39 4.215,-17.43 4.234,-23.43 l 0,0 c -0.019,-3.33 -0.5,-6.14 -2.023,-8.19 l 0,0 c 2.5,-10.54 3.977,-18.12 4,-22.93 l 0,0 c 0.019,-2.43 -0.395,-4.77 -2.059,-5.88 l 0,0 c 0.254,-3.88 0.411,-7.35 0.411,-10.39 l 0,0 c -0.176,-6.8 -0.348,-11.51 -3.215,-13.73 l 0,0 c 0.019,-1.12 0.019,-2.2 0.019,-3.25 l 0,0 c 0,-17.61 -2.015,-23.04 -5.39,-25.48 l 0,0 c 0.132,-1.68 0.226,-3.28 0.226,-4.86 l 0,0 c 0,-6.49 -1.308,-12.07 -5.621,-14.91 l 0,0 c -1.176,-10.42 -3.262,-18.18 -7.629,-22.37 l 0,0 c -0.476,-7.01 -9.008,-10.57 -10.707,-12.85 l 0,0 -0.953,-1.07 -1.172,0.77 0,0 z m -7.84,4.83 c 1.414,-1.55 5.235,-0.81 8.317,-1.6 l 0,0 c 3.328,2.96 9.336,6.46 9.054,10.18 l 0,0 c 0,0.07 0,0.23 0,0.48 l 0,0 0,0.8 0.606,0.49 c 3.515,2.76 6.047,10.46 7.125,21.49 l 0,0 0.082,0.89 0.781,0.39 c 3.156,1.61 4.649,5.89 4.649,12.48 l 0,0 c 0,1.75 -0.125,3.6 -0.278,5.57 l 0,0 -0.113,1.1 1.004,0.51 c 1.914,0.87 4.578,3.84 4.578,23.16 l 0,0 c 0,1.3 -0.02,2.69 -0.039,4.13 l 0,0 0,1.23 1.144,0.37 c 0.18,-0.02 0.899,0.63 1.352,2.65 l 0,0 c 0.473,1.95 0.711,4.92 0.711,8.6 l 0,0 c 0,3.21 -0.168,7.01 -0.473,11.3 l 0,0 -0.101,1.55 1.531,0.2 c 0,0.02 0.68,0.22 0.699,3.22 l 0,0 c 0,4.27 -1.523,12.1 -4.105,22.99 l 0,0 -0.192,0.88 0.629,0.63 c 1,0.98 1.692,3.21 1.692,6.62 l 0,0 c 0,5.47 -1.672,13.55 -4.254,23.02 l 0,0 -0.137,0.48 0.156,0.49 c 0.453,1.39 0.668,2.83 0.668,4.35 l 0,0 c 0.031,6.6 -4.277,14.55 -9.551,22.73 l 0,0 -0.496,0.79 0.414,0.83 c 0.473,0.94 0.707,2.03 0.707,3.28 l 0,0 c 0.075,5.18 -4.464,13.1 -10.043,21.22 l 0,0 -0.527,0.78 0.41,0.84 c 0.219,0.48 0.332,0.97 0.332,1.59 l 0,0 c 0.196,3.86 -5.941,11.89 -18.941,22.2 l 0,0 -0.586,0.5 0,0.77 c -0.02,0.08 -0.02,0.13 0,0.19 l 0,0 c 0.289,5.66 -8.566,11.95 -19.457,17.68 l 0,0 -0.746,0.4 -0.113,0.85 c -0.59,4 -0.868,7.85 -22.188,17.99 l 0,0 -0.742,0.37 -0.176,0.79 c -1.019,5.56 -10.414,11.03 -23.043,15.58 l 0,0 -0.687,0.28 -0.258,0.68 c -0.68,1.55 -0.133,1.64 -2.824,3.07 l 0,0 c -2.739,1.29 -8.594,2.91 -20.625,4.87 l 0,0 -0.868,0.14 -0.371,0.76 c -0.91,2.41 -7.687,5.94 -26.121,8.15 l 0,0 -0.648,0.07 -0.414,0.51 c -2.153,2.8 -8.688,5.19 -22.063,5.14 l 0,0 c -2.562,0 -5.336,-0.06 -8.394,-0.25 l 0,0 -0.356,0 -0.304,0.11 c -1.559,0.56 -3.168,0.82 -4.77,0.82 l 0,0 c -5.371,0.01 -10.949,-2.79 -14.664,-4.78 l 0,0 -0.395,-0.2 -0.429,0 c -0.418,0.02 -0.828,0.02 -1.239,0.02 l 0,0 c -7.968,0.01 -12.793,-0.75 -15.32,-1.79 l 0,0 c -2.59,-1.14 -2.746,-1.87 -2.828,-2.92 l 0,0 c 0,-0.44 0.102,-1.01 0.324,-1.66 l 0,0 0.586,-1.76 -1.844,-0.37 c -9.73,-1.93 -15.656,-4.78 -21.953,-10.56 l 0,0 c 3.278,-15.47 3.672,-36.77 11.207,-37.45 l 0,0 1.274,-0.28 0.054,-1.28 c 0.86,-28.25 6.422,-40.15 13.2,-43.04 l 0,0 0.839,-0.39 0.118,-0.94 c 1.949,-17.69 6.558,-31.83 16.492,-36.27 l 0,0 0.672,-0.29 0.218,-0.7 c 4.762,-15.64 11.208,-25.45 17.372,-25.13 l 0,0 c 0.234,0 0.507,0.01 0.761,0.03 l 0,0 1.145,0.09 0.508,-1.04 c 9.078,-19.6 14.14,-22.25 18.375,-23.15 l 0,0 0.668,-0.13 0.394,-0.59 c 6.231,-9.51 11.527,-16.23 16.535,-21.84 l 0,0 c 6.43,-9.36 12.664,-15.38 15.098,-15.06 l 0,0 c 0.234,0 0.43,0.05 0.668,0.13 l 0,0 1.348,0.5 0.648,-1.31 c 7.102,-14.07 12.965,-19.39 15.793,-19.11 l 0,0 c 0.383,0 0.742,0.08 1.145,0.21 l 0,0 1.343,0.49 0.68,-1.27 c 6.812,-13.08 12.523,-17.83 16.129,-17.73 l 0,0 1.062,0 0.442,-0.97 c 4.574,-11.01 9.769,-17.94 13.261,-17.57 l 0,0 c 0,0 0.063,0 0.239,0 l 0,0 0.84,-0.05 0.464,-0.75 c 5.692,-9.66 11.485,-15.67 15.375,-15.46 l 0,0 c 0.454,0.02 0.907,0.09 1.43,0.21 l 0,0 1.188,0.38 0.664,-1.1 c 6.312,-10.59 8.965,-11.86 10.371,-11.74 l 0,0 c 0.785,-0.01 1.863,0.38 3.476,0.6 l 0,0 1.524,0.2 0.297,-1.49 c 0.695,-3.24 3.761,-5.4 7.531,-5.41 l 0,0 c 1.176,0 2.394,0.21 3.613,0.65 l 0,0 0.93,0.36 0.734,-0.67 0,0"
         id="path5075" />
    </clipPath>
    <radialGradient
       fx="0"
       fy="0"
       cx="0"
       cy="0"
       r="1"
       gradientUnits="userSpaceOnUse"
       gradientTransform="matrix(14.9697,0,0,-14.9697,75.437,352.862)"
       spreadMethod="pad"
       id="radialGradient5077">
      <stop
         style="stop-opacity:1;stop-color:#a6d81e"
         offset="0"
         id="stop5079" />
      <stop
         style="stop-opacity:1;stop-color:#6bb731"
         offset="1"
         id="stop5081" />
    </radialGradient>
    <clipPath
       clipPathUnits="userSpaceOnUse"
       id="clipPath5057">
      <path
         inkscape:connector-curvature="0"
         d="m 624.355,3667.5 c 3.782,-15.08 2.75,-37.53 12.688,-39.63 0.926,-28.34 6.262,-40.89 14.168,-44.49 1.996,-17.79 6.5,-32.56 17.441,-37.59 5.102,-16.24 11.598,-27.09 19.868,-26.24 9.07,-19.65 14.562,-23.04 19.539,-24.07 6.296,-9.59 11.652,-16.36 16.589,-21.91 7.336,-10.36 13.614,-17.05 17.653,-15.52 8.23,-16 14.355,-21.45 18.926,-19.69 6.957,-13.15 12.664,-18.55 17.593,-18.6 4.797,-11.08 9.66,-18.68 14.922,-18.56 6.531,-10.82 12.781,-17.76 18.664,-15.98 9.25,-15.45 11.145,-12.52 15.461,-11.94 1.153,-5.4 7.449,-8.14 13.309,-5.93 2.652,-2.42 8.101,-1.1 9.836,-2.21 2.449,2.78 10.765,6.6 10.293,12.5 4.191,3.45 6.601,11.45 7.73,22.61 5.129,2.68 6.117,10.08 5.235,19.64 3.128,1.61 5.82,5.86 5.429,28.78 3.254,1.02 3.797,9.9 2.727,24.25 3.691,0.5 2.312,10.1 -2,28.2 3.941,4.01 2.047,15.79 -2.16,31.22 2.8,8.44 -2.528,18.38 -9.063,28.5 3.125,6.22 -2.488,15.96 -9.441,26.17 2.386,5.05 -3.969,13.63 -19.016,25.75 0.145,7.32 -9.406,13.41 -20.324,19.33 -0.559,4.57 -1.774,9.3 -23.145,19.3 -1.519,6.87 -11.398,12.1 -24.07,16.77 -0.961,2.58 -0.531,5.04 -24.727,8.97 -1.75,3.58 -8.871,6.72 -27.394,9.05 -3.414,4.19 -12.613,6.54 -31.832,5.5 -7.617,2.79 -15.891,-1.46 -20.774,-4.05 -20.671,0.18 -22.082,-4.16 -20.671,-8.51 -10.274,-2.01 -16.723,-5.23 -23.454,-11.62 l 0,0"
         clip-rule="evenodd"
         id="path5059" />
    </clipPath>
    <radialGradient
       fx="0"
       fy="0"
       cx="0"
       cy="0"
       r="1"
       gradientUnits="userSpaceOnUse"
       gradientTransform="matrix(14.7876,0,0,-14.7876,75.4458,352.887)"
       spreadMethod="pad"
       id="radialGradient5061">
      <stop
         style="stop-opacity:1;stop-color:#a6d81e"
         offset="0"
         id="stop5063" />
      <stop
         style="stop-opacity:1;stop-color:#7fcc2a"
         offset="1"
         id="stop5065" />
    </radialGradient>
    <clipPath
       clipPathUnits="userSpaceOnUse"
       id="clipPath5039">
      <path
         inkscape:connector-curvature="0"
         d="m 365.797,3376.36 c 51.988,32.59 113.476,13.62 142.226,-22.86 32.02,-40.64 31.325,-106.18 9.079,-151.19 -23.961,-48.41 -73.543,-78.38 -134.61,-73.02 -75.769,-2.62 -131.875,45.09 -142.847,114.45 -5.485,34.74 -1.059,76.49 20.96,105.16 20.801,27.1 65.618,54.01 105.192,27.46 l 0,0"
         clip-rule="evenodd"
         id="path5041" />
    </clipPath>
    <radialGradient
       fx="0"
       fy="0"
       cx="0"
       cy="0"
       r="0.89560401"
       gradientUnits="userSpaceOnUse"
       gradientTransform="matrix(-12.8606,-10.767,-10.767,12.8606,44.6265,329.863)"
       spreadMethod="pad"
       id="radialGradient5043">
      <stop
         style="stop-opacity:1;stop-color:#f89c94"
         offset="0"
         id="stop5045" />
      <stop
         style="stop-opacity:1;stop-color:#ec173a"
         offset="0.708791"
         id="stop5047" />
      <stop
         style="stop-opacity:1;stop-color:#d21432"
         offset="1"
         id="stop5049" />
    </radialGradient>
    <clipPath
       clipPathUnits="userSpaceOnUse"
       id="clipPath5021">
      <path
         inkscape:connector-curvature="0"
         d="m 554.008,3649.59 c -16.59,-8.24 -29.473,-5.06 -46.883,0.26 -6.578,2.03 -11.812,17.86 -1.734,22.77 -0.68,5.09 -1.563,9.92 2.539,13.09 -1.91,4.1 -2.067,10.29 1.09,13.94 -3.137,6.42 2.293,18.37 11.179,16.99 0,7.85 22.414,9.24 22.906,1.34 10.903,-0.21 14.532,-7.61 13.223,-14.91 5.645,-5.03 5.625,-11.44 2.11,-16.64 3.593,-5.35 3.753,-10.84 -0.094,-14.12 9.726,-9.38 4.844,-18.17 -4.336,-22.72 l 0,0"
         clip-rule="evenodd"
         id="path5023" />
    </clipPath>
    <linearGradient
       x1="0"
       y1="0"
       x2="1"
       y2="0"
       gradientUnits="userSpaceOnUse"
       gradientTransform="matrix(6.39209,0,0,-12.4531,49.9751,374.588)"
       spreadMethod="pad"
       id="linearGradient5025">
      <stop
         style="stop-opacity:1;stop-color:#ad7c29"
         offset="0"
         id="stop5027" />
      <stop
         style="stop-opacity:1;stop-color:#cea652"
         offset="0.505494"
         id="stop5029" />
      <stop
         style="stop-opacity:1;stop-color:#ad7c29"
         offset="1"
         id="stop5031" />
    </linearGradient>
    <clipPath
       clipPathUnits="userSpaceOnUse"
       id="clipPath5003">
      <path
         inkscape:connector-curvature="0"
         d="m 513.668,3664.45 c -0.055,12.76 17.867,27.11 29.652,19.66 39.192,-92.73 81.938,-202.45 133.555,-313.42 6.746,-14.5 -18.238,-19.05 -22.906,-4.99 -19.961,60.02 -91.43,280.55 -140.301,298.75 l 0,0"
         clip-rule="evenodd"
         id="path5005" />
    </clipPath>
    <linearGradient
       x1="0"
       y1="0"
       x2="1"
       y2="0"
       gradientUnits="userSpaceOnUse"
       gradientTransform="matrix(16.4355,0,0,-37.9917,51.3667,371.156)"
       spreadMethod="pad"
       id="linearGradient5007">
      <stop
         style="stop-opacity:1;stop-color:#ad7c29"
         offset="0"
         id="stop5009" />
      <stop
         style="stop-opacity:1;stop-color:#7fcc2a"
         offset="0.505494"
         id="stop5011" />
      <stop
         style="stop-opacity:1;stop-color:#ad7c29"
         offset="1"
         id="stop5013" />
    </linearGradient>
    <clipPath
       clipPathUnits="userSpaceOnUse"
       id="clipPath4985">
      <path
         inkscape:connector-curvature="0"
         d="m 536.914,3657.31 c -49.09,-82.54 -95.664,-184.64 -132.363,-282.88 -4.613,-12.41 -33.164,-17.49 -24.117,1.96 44.183,94.88 99.168,192.61 128.039,287.28 10.726,5.33 23.191,2.04 28.441,-6.36 l 0,0"
         clip-rule="evenodd"
         id="path4987" />
    </clipPath>
    <linearGradient
       x1="0"
       y1="0"
       x2="1"
       y2="0"
       gradientUnits="userSpaceOnUse"
       gradientTransform="matrix(15.8237,0,0,-35.2065,37.8677,368.9)"
       spreadMethod="pad"
       id="linearGradient4989">
      <stop
         style="stop-opacity:1;stop-color:#ad7c29"
         offset="0"
         id="stop4991" />
      <stop
         style="stop-opacity:1;stop-color:#7fcc2a"
         offset="0.505494"
         id="stop4993" />
      <stop
         style="stop-opacity:1;stop-color:#ad7c29"
         offset="1"
         id="stop4995" />
    </linearGradient>
    <clipPath
       clipPathUnits="userSpaceOnUse"
       id="clipPath4969">
      <path
         inkscape:connector-curvature="0"
         d="m 744.883,3369.44 c -35.309,-16.09 -86.875,-31.87 -141.063,-19.96 29.676,35.04 81.414,46.22 141.063,19.96 l 0,0"
         clip-rule="evenodd"
         id="path4971" />
    </clipPath>
    <radialGradient
       fx="0"
       fy="0"
       cx="0"
       cy="0"
       r="0.78021997"
       gradientUnits="userSpaceOnUse"
       gradientTransform="matrix(-2.46545,-7.5646,-7.5646,2.46545,65.0523,336.895)"
       spreadMethod="pad"
       id="radialGradient4973">
      <stop
         style="stop-opacity:1;stop-color:#ab1027"
         offset="0"
         id="stop4975" />
      <stop
         style="stop-opacity:1;stop-color:#d61533"
         offset="1"
         id="stop4977" />
    </radialGradient>
    <clipPath
       clipPathUnits="userSpaceOnUse"
       id="clipPath4951">
      <path
         inkscape:connector-curvature="0"
         d="m 831.215,3291.93 c 11.223,-51.98 -5.883,-92.52 -31.57,-121.64 -56.614,-64.23 -139.379,-69.55 -204.665,-12.14 -29.886,26.25 -51.773,65.64 -44.968,121.45 2.668,22.14 8.183,49.78 21.711,68.65 38.238,53.22 146.238,87.44 215.976,23.2 23.926,-22.06 37.024,-49.29 43.516,-79.52 l 0,0"
         clip-rule="evenodd"
         id="path4953" />
    </clipPath>
    <radialGradient
       fx="0"
       fy="0"
       cx="0"
       cy="0"
       r="1"
       gradientUnits="userSpaceOnUse"
       gradientTransform="matrix(-16.7008,-1.89384,-1.89384,16.7008,75.3409,323.062)"
       spreadMethod="pad"
       id="radialGradient4955">
      <stop
         style="stop-opacity:1;stop-color:#f89c94"
         offset="0"
         id="stop4957" />
      <stop
         style="stop-opacity:1;stop-color:#ec173a"
         offset="0.785714"
         id="stop4959" />
      <stop
         style="stop-opacity:1;stop-color:#d21432"
         offset="1"
         id="stop4961" />
    </radialGradient>
  </defs>
  <sodipodi:namedview
     id="base"
     pagecolor="#ffffff"
     bordercolor="#666666"
     borderopacity="1.0"
     inkscape:pageopacity="0.0"
     inkscape:pageshadow="2"
     inkscape:zoom="7.9195959"
     inkscape:cx="45.585449"
     inkscape:cy="9.2228253"
     inkscape:document-units="px"
     inkscape:current-layer="layer1"
     showgrid="false"
     fit-margin-top="0"
     fit-margin-left="0"
     fit-margin-right="0"
     fit-margin-bottom="0"
     inkscape:window-width="1600"
     inkscape:window-height="848"
     inkscape:window-x="-8"
     inkscape:window-y="-8"
     inkscape:window-maximized="1" />
  <metadata
     id="metadata4921">
    <rdf:RDF>
      <cc:Work
         rdf:about="">
        <dc:format>image/svg+xml</dc:format>
        <dc:type
           rdf:resource="http://purl.org/dc/dcmitype/StillImage" />
        <dc:title></dc:title>
      </cc:Work>
    </rdf:RDF>
  </metadata>
  <g
     inkscape:label="Calque 1"
     inkscape:groupmode="layer"
     id="layer1"
     transform="translate(-363.60227,-399.93917)">
    <g
       transform="matrix(0.07688492,0,0,-0.07688492,345.9612,686.32658)"
       id="g4947">
      <g
         id="g4949"
         clip-path="url(#clipPath4951)">
        <path
           inkscape:connector-curvature="0"
           d="m 831.215,3291.93 c 11.223,-51.98 -5.883,-92.52 -31.57,-121.64 -56.614,-64.23 -139.379,-69.55 -204.665,-12.14 -29.886,26.25 -51.773,65.64 -44.968,121.45 2.668,22.14 8.183,49.78 21.711,68.65 38.238,53.22 146.238,87.44 215.976,23.2 23.926,-22.06 37.024,-49.29 43.516,-79.52 l 0,0"
           style="fill:url(#radialGradient4955);fill-opacity:1;fill-rule:nonzero;stroke:none"
           id="path4963" />
      </g>
    </g>
    <g
       transform="matrix(0.07688492,0,0,-0.07688492,345.9612,686.32658)"
       id="g4965">
      <g
         id="g4967"
         clip-path="url(#clipPath4969)">
        <path
           inkscape:connector-curvature="0"
           d="m 744.883,3369.44 c -35.309,-16.09 -86.875,-31.87 -141.063,-19.96 29.676,35.04 81.414,46.22 141.063,19.96 l 0,0"
           style="fill:url(#radialGradient4973);fill-opacity:1;fill-rule:nonzero;stroke:none"
           id="path4979" />
      </g>
    </g>
    <g
       transform="matrix(0.07688492,0,0,-0.07688492,345.9612,686.32658)"
       id="g4981">
      <g
         id="g4983"
         clip-path="url(#clipPath4985)">
        <path
           inkscape:connector-curvature="0"
           d="m 536.914,3657.31 c -49.09,-82.54 -95.664,-184.64 -132.363,-282.88 -4.613,-12.41 -33.164,-17.49 -24.117,1.96 44.183,94.88 99.168,192.61 128.039,287.28 10.726,5.33 23.191,2.04 28.441,-6.36 l 0,0"
           style="fill:url(#linearGradient4989);fill-opacity:1;fill-rule:nonzero;stroke:none"
           id="path4997" />
      </g>
    </g>
    <g
       transform="matrix(0.07688492,0,0,-0.07688492,345.9612,686.32658)"
       id="g4999">
      <g
         id="g5001"
         clip-path="url(#clipPath5003)">
        <path
           inkscape:connector-curvature="0"
           d="m 513.668,3664.45 c -0.055,12.76 17.867,27.11 29.652,19.66 39.192,-92.73 81.938,-202.45 133.555,-313.42 6.746,-14.5 -18.238,-19.05 -22.906,-4.99 -19.961,60.02 -91.43,280.55 -140.301,298.75 l 0,0"
           style="fill:url(#linearGradient5007);fill-opacity:1;fill-rule:nonzero;stroke:none"
           id="path5015" />
      </g>
    </g>
    <g
       transform="matrix(0.07688492,0,0,-0.07688492,345.9612,686.32658)"
       id="g5017">
      <g
         id="g5019"
         clip-path="url(#clipPath5021)">
        <path
           inkscape:connector-curvature="0"
           d="m 554.008,3649.59 c -16.59,-8.24 -29.473,-5.06 -46.883,0.26 -6.578,2.03 -11.812,17.86 -1.734,22.77 -0.68,5.09 -1.563,9.92 2.539,13.09 -1.91,4.1 -2.067,10.29 1.09,13.94 -3.137,6.42 2.293,18.37 11.179,16.99 0,7.85 22.414,9.24 22.906,1.34 10.903,-0.21 14.532,-7.61 13.223,-14.91 5.645,-5.03 5.625,-11.44 2.11,-16.64 3.593,-5.35 3.753,-10.84 -0.094,-14.12 9.726,-9.38 4.844,-18.17 -4.336,-22.72 l 0,0"
           style="fill:url(#linearGradient5025);fill-opacity:1;fill-rule:nonzero;stroke:none"
           id="path5033" />
      </g>
    </g>
    <g
       transform="matrix(0.07688492,0,0,-0.07688492,345.9612,686.32658)"
       id="g5035">
      <g
         id="g5037"
         clip-path="url(#clipPath5039)">
        <path
           inkscape:connector-curvature="0"
           d="m 365.797,3376.36 c 51.988,32.59 113.476,13.62 142.226,-22.86 32.02,-40.64 31.325,-106.18 9.079,-151.19 -23.961,-48.41 -73.543,-78.38 -134.61,-73.02 -75.769,-2.62 -131.875,45.09 -142.847,114.45 -5.485,34.74 -1.059,76.49 20.96,105.16 20.801,27.1 65.618,54.01 105.192,27.46 l 0,0"
           style="fill:url(#radialGradient5043);fill-opacity:1;fill-rule:nonzero;stroke:none"
           id="path5051" />
      </g>
    </g>
    <g
       transform="matrix(0.07688492,0,0,-0.07688492,345.9612,686.32658)"
       id="g5053">
      <g
         id="g5055"
         clip-path="url(#clipPath5057)">
        <path
           inkscape:connector-curvature="0"
           d="m 624.355,3667.5 c 3.782,-15.08 2.75,-37.53 12.688,-39.63 0.926,-28.34 6.262,-40.89 14.168,-44.49 1.996,-17.79 6.5,-32.56 17.441,-37.59 5.102,-16.24 11.598,-27.09 19.868,-26.24 9.07,-19.65 14.562,-23.04 19.539,-24.07 6.296,-9.59 11.652,-16.36 16.589,-21.91 7.336,-10.36 13.614,-17.05 17.653,-15.52 8.23,-16 14.355,-21.45 18.926,-19.69 6.957,-13.15 12.664,-18.55 17.593,-18.6 4.797,-11.08 9.66,-18.68 14.922,-18.56 6.531,-10.82 12.781,-17.76 18.664,-15.98 9.25,-15.45 11.145,-12.52 15.461,-11.94 1.153,-5.4 7.449,-8.14 13.309,-5.93 2.652,-2.42 8.101,-1.1 9.836,-2.21 2.449,2.78 10.765,6.6 10.293,12.5 4.191,3.45 6.601,11.45 7.73,22.61 5.129,2.68 6.117,10.08 5.235,19.64 3.128,1.61 5.82,5.86 5.429,28.78 3.254,1.02 3.797,9.9 2.727,24.25 3.691,0.5 2.312,10.1 -2,28.2 3.941,4.01 2.047,15.79 -2.16,31.22 2.8,8.44 -2.528,18.38 -9.063,28.5 3.125,6.22 -2.488,15.96 -9.441,26.17 2.386,5.05 -3.969,13.63 -19.016,25.75 0.145,7.32 -9.406,13.41 -20.324,19.33 -0.559,4.57 -1.774,9.3 -23.145,19.3 -1.519,6.87 -11.398,12.1 -24.07,16.77 -0.961,2.58 -0.531,5.04 -24.727,8.97 -1.75,3.58 -8.871,6.72 -27.394,9.05 -3.414,4.19 -12.613,6.54 -31.832,5.5 -7.617,2.79 -15.891,-1.46 -20.774,-4.05 -20.671,0.18 -22.082,-4.16 -20.671,-8.51 -10.274,-2.01 -16.723,-5.23 -23.454,-11.62 l 0,0"
           style="fill:url(#radialGradient5061);fill-opacity:1;fill-rule:nonzero;stroke:none"
           id="path5067" />
      </g>
    </g>
    <g
       transform="matrix(0.07688492,0,0,-0.07688492,345.9612,686.32658)"
       id="g5069">
      <g
         id="g5071"
         clip-path="url(#clipPath5073)">
        <path
           inkscape:connector-curvature="0"
           d="m 850.121,3363.75 c -0.258,0.65 -5.512,-0.48 -9.199,1.78 l 0,0 c -1.309,-0.39 -2.606,-0.6 -3.918,-0.6 l 0,0 c -4.449,-0.02 -8.652,2.39 -10.293,6.48 l 0,0 c -0.75,-0.18 -1.555,-0.34 -2.535,-0.37 l 0,0 c -3.625,0.13 -6.645,2.63 -12.59,12.34 l 0,0 c -0.352,-0.05 -0.723,-0.07 -1.063,-0.07 l 0,0 c -6.582,0.22 -11.945,6.99 -17.765,16.34 l 0,0 c -6.254,0.92 -10.488,8.48 -15.043,18.57 l 0,0 c -5.664,0.84 -10.992,6.57 -17.332,18.23 l 0,0 c -0.254,-0.02 -0.543,-0.05 -0.84,-0.05 l 0,0 c -5.754,0.27 -11.012,6.43 -18.141,19.81 l 0,0 c -0.101,0 -0.214,0 -0.316,0 l 0,0 c -5.606,0.31 -10.949,7 -17.672,16.28 l 0,0 c -4.918,5.49 -10.191,12.16 -16.351,21.51 l 0,0 c -5.418,1.35 -11.145,5.76 -19.59,23.86 l 0,0 c -9.317,0.43 -15.223,11.51 -20.168,26.77 l 0,0 c -11.293,5.78 -15.571,20.52 -17.633,37.7 l 0,0 c -8.406,4.65 -13.18,17.59 -14.242,44.38 l 0,0 c -10.703,4.68 -8.774,26.27 -12.68,40.4 l 0,0 -0.215,0.93 0.688,0.66 c 6.523,6.24 13.039,9.64 22.59,11.72 l 0,0 c -0.055,0.28 -0.075,0.58 -0.075,0.87 l 0,0 c 0.289,5.22 5.45,7.98 21.453,8 l 0,0 c 0.309,0 0.586,0 0.895,0 l 0,0 c 3.793,2 9.57,4.94 15.832,4.97 l 0,0 c 1.82,0 3.703,-0.28 5.551,-0.92 l 0,0 c 2.976,0.17 5.73,0.25 8.273,0.25 l 0,0 c 13.117,-0.05 20.434,-1.96 24.164,-5.87 l 0,0 c 17.137,-2.26 24.629,-4.85 27.578,-9.07 l 0,0 c 11.661,-1.93 17.485,-3.49 20.786,-5.02 l 0,0 c 2.777,-1.17 3.796,-2.99 4.273,-4.19 l 0,0 c 11.902,-4.53 21.629,-9.31 24.102,-16.87 l 0,0 c 19.589,-9.12 22.578,-14.56 23.293,-19.43 l 0,0 c 10.246,-5.69 19.675,-11.32 20.382,-19.56 l 0,0 c 12.692,-10.4 19.375,-17.88 19.59,-24.29 l 0,0 c 0,-0.72 -0.113,-1.4 -0.293,-2.06 l 0,0 c 5.375,-8.03 10.043,-15.69 10.137,-22.37 l 0,0 c 0,-1.33 -0.231,-2.63 -0.68,-3.86 l 0,0 c 5.129,-8.05 9.563,-16.04 9.606,-23.77 l 0,0 c 0,-1.65 -0.219,-3.31 -0.68,-4.91 l 0,0 c 2.52,-9.39 4.215,-17.43 4.234,-23.43 l 0,0 c -0.019,-3.33 -0.5,-6.14 -2.023,-8.19 l 0,0 c 2.5,-10.54 3.977,-18.12 4,-22.93 l 0,0 c 0.019,-2.43 -0.395,-4.77 -2.059,-5.88 l 0,0 c 0.254,-3.88 0.411,-7.35 0.411,-10.39 l 0,0 c -0.176,-6.8 -0.348,-11.51 -3.215,-13.73 l 0,0 c 0.019,-1.12 0.019,-2.2 0.019,-3.25 l 0,0 c 0,-17.61 -2.015,-23.04 -5.39,-25.48 l 0,0 c 0.132,-1.68 0.226,-3.28 0.226,-4.86 l 0,0 c 0,-6.49 -1.308,-12.07 -5.621,-14.91 l 0,0 c -1.176,-10.42 -3.262,-18.18 -7.629,-22.37 l 0,0 c -0.476,-7.01 -9.008,-10.57 -10.707,-12.85 l 0,0 -0.953,-1.07 -1.172,0.77 0,0 z m -7.84,4.83 c 1.414,-1.55 5.235,-0.81 8.317,-1.6 l 0,0 c 3.328,2.96 9.336,6.46 9.054,10.18 l 0,0 c 0,0.07 0,0.23 0,0.48 l 0,0.8 0.606,0.49 c 3.515,2.76 6.047,10.46 7.125,21.49 l 0,0 0.082,0.89 0.781,0.39 c 3.156,1.61 4.649,5.89 4.649,12.48 l 0,0 c 0,1.75 -0.125,3.6 -0.278,5.57 l 0,0 -0.113,1.1 1.004,0.51 c 1.914,0.87 4.578,3.84 4.578,23.16 l 0,0 c 0,1.3 -0.02,2.69 -0.039,4.13 l 0,1.23 1.144,0.37 c 0.18,-0.02 0.899,0.63 1.352,2.65 l 0,0 c 0.473,1.95 0.711,4.92 0.711,8.6 l 0,0 c 0,3.21 -0.168,7.01 -0.473,11.3 l 0,0 -0.101,1.55 1.531,0.2 c 0,0.02 0.68,0.22 0.699,3.22 l 0,0 c 0,4.27 -1.523,12.1 -4.105,22.99 l 0,0 -0.192,0.88 0.629,0.63 c 1,0.98 1.692,3.21 1.692,6.62 l 0,0 c 0,5.47 -1.672,13.55 -4.254,23.02 l 0,0 -0.137,0.48 0.156,0.49 c 0.453,1.39 0.668,2.83 0.668,4.35 l 0,0 c 0.031,6.6 -4.277,14.55 -9.551,22.73 l 0,0 -0.496,0.79 0.414,0.83 c 0.473,0.94 0.707,2.03 0.707,3.28 l 0,0 c 0.075,5.18 -4.464,13.1 -10.043,21.22 l 0,0 -0.527,0.78 0.41,0.84 c 0.219,0.48 0.332,0.97 0.332,1.59 l 0,0 c 0.196,3.86 -5.941,11.89 -18.941,22.2 l 0,0 -0.586,0.5 0,0.77 c -0.02,0.08 -0.02,0.13 0,0.19 l 0,0 c 0.289,5.66 -8.566,11.95 -19.457,17.68 l 0,0 -0.746,0.4 -0.113,0.85 c -0.59,4 -0.868,7.85 -22.188,17.99 l 0,0 -0.742,0.37 -0.176,0.79 c -1.019,5.56 -10.414,11.03 -23.043,15.58 l 0,0 -0.687,0.28 -0.258,0.68 c -0.68,1.55 -0.133,1.64 -2.824,3.07 l 0,0 c -2.739,1.29 -8.594,2.91 -20.625,4.87 l 0,0 -0.868,0.14 -0.371,0.76 c -0.91,2.41 -7.687,5.94 -26.121,8.15 l 0,0 -0.648,0.07 -0.414,0.51 c -2.153,2.8 -8.688,5.19 -22.063,5.14 l 0,0 c -2.562,0 -5.336,-0.06 -8.394,-0.25 l -0.356,0 -0.304,0.11 c -1.559,0.56 -3.168,0.82 -4.77,0.82 l 0,0 c -5.371,0.01 -10.949,-2.79 -14.664,-4.78 l 0,0 -0.395,-0.2 -0.429,0 c -0.418,0.02 -0.828,0.02 -1.239,0.02 l 0,0 c -7.968,0.01 -12.793,-0.75 -15.32,-1.79 l 0,0 c -2.59,-1.14 -2.746,-1.87 -2.828,-2.92 l 0,0 c 0,-0.44 0.102,-1.01 0.324,-1.66 l 0,0 0.586,-1.76 -1.844,-0.37 c -9.73,-1.93 -15.656,-4.78 -21.953,-10.56 l 0,0 c 3.278,-15.47 3.672,-36.77 11.207,-37.45 l 0,0 1.274,-0.28 0.054,-1.28 c 0.86,-28.25 6.422,-40.15 13.2,-43.04 l 0,0 0.839,-0.39 0.118,-0.94 c 1.949,-17.69 6.558,-31.83 16.492,-36.27 l 0,0 0.672,-0.29 0.218,-0.7 c 4.762,-15.64 11.208,-25.45 17.372,-25.13 l 0,0 c 0.234,0 0.507,0.01 0.761,0.03 l 0,0 1.145,0.09 0.508,-1.04 c 9.078,-19.6 14.14,-22.25 18.375,-23.15 l 0,0 0.668,-0.13 0.394,-0.59 c 6.231,-9.51 11.527,-16.23 16.535,-21.84 l 0,0 c 6.43,-9.36 12.664,-15.38 15.098,-15.06 l 0,0 c 0.234,0 0.43,0.05 0.668,0.13 l 0,0 1.348,0.5 0.648,-1.31 c 7.102,-14.07 12.965,-19.39 15.793,-19.11 l 0,0 c 0.383,0 0.742,0.08 1.145,0.21 l 0,0 1.343,0.49 0.68,-1.27 c 6.812,-13.08 12.523,-17.83 16.129,-17.73 l 1.062,0 0.442,-0.97 c 4.574,-11.01 9.769,-17.94 13.261,-17.57 l 0,0 c 0,0 0.063,0 0.239,0 l 0,0 0.84,-0.05 0.464,-0.75 c 5.692,-9.66 11.485,-15.67 15.375,-15.46 l 0,0 c 0.454,0.02 0.907,0.09 1.43,0.21 l 0,0 1.188,0.38 0.664,-1.1 c 6.312,-10.59 8.965,-11.86 10.371,-11.74 l 0,0 c 0.785,-0.01 1.863,0.38 3.476,0.6 l 0,0 1.524,0.2 0.297,-1.49 c 0.695,-3.24 3.761,-5.4 7.531,-5.41 l 0,0 c 1.176,0 2.394,0.21 3.613,0.65 l 0,0 0.93,0.36 0.734,-0.67 0,0"
           style="fill:url(#radialGradient5077);fill-opacity:1;fill-rule:nonzero;stroke:none"
           id="path5083" />
      </g>
    </g>
    <g
       transform="matrix(0.07688492,0,0,-0.07688492,345.9612,686.32658)"
       id="g5085">
      <g
         id="g5087"
         clip-path="url(#clipPath5089)">
        <path
           inkscape:connector-curvature="0"
           d="m 548.813,3715.12 c 15.378,-23.3 47.679,-28.86 75.839,-44.78 2.414,-1.36 4.782,-2.8 7.149,-4.24 183.199,-111.3 255.816,-215.15 219.211,-300.96 43.515,118.83 -133.949,249.67 -224.707,291.73 -25.856,11.98 -63.352,13.57 -92.301,36.74 -5.883,4.73 -15.453,15.82 -8.824,23.52 4.902,5.66 16.687,6.54 23.633,-2.01 l 0,0"
           style="fill:url(#linearGradient5093);fill-opacity:1;fill-rule:nonzero;stroke:none"
           id="path5099" />
      </g>
    </g>
    <g
       transform="matrix(0.07688492,0,0,-0.07688492,345.9612,686.32658)"
       id="g5101">
      <g
         id="g5103"
         clip-path="url(#clipPath5105)">
        <path
           inkscape:connector-curvature="0"
           d="m 754.086,3289.62 c -0.52,11.58 -12.633,28.38 -19.867,32.98 16.554,3.58 30.422,12.01 42.621,30.23 12.473,-19.09 0.215,-55.59 -22.754,-63.21 l 0,0"
           style="fill:url(#radialGradient5109);fill-opacity:1;fill-rule:nonzero;stroke:none"
           id="path5115" />
      </g>
    </g>
    <g
       transform="matrix(0.07688492,0,0,-0.07688492,345.9612,686.32658)"
       id="g5117">
      <g
         id="g5119"
         clip-path="url(#clipPath5121)">
        <path
           inkscape:connector-curvature="0"
           d="m 415.98,3353.26 c 3.278,-5.05 5.813,-23.67 4.422,-33.73 26.121,9.87 61.262,1.82 76.672,-6.09 -17.781,44.7 -59.539,46.58 -81.094,39.82 l 0,0"
           style="fill:url(#radialGradient5125);fill-opacity:1;fill-rule:nonzero;stroke:none"
           id="path5131" />
      </g>
    </g>
  </g>
</svg>
