<?xml version="1.0" encoding="UTF-8" standalone="no"?>
<!-- Created with Inkscape (http://www.inkscape.org/) -->

<svg
   xmlns:dc="http://purl.org/dc/elements/1.1/"
   xmlns:cc="http://creativecommons.org/ns#"
   xmlns:rdf="http://www.w3.org/1999/02/22-rdf-syntax-ns#"
   xmlns:svg="http://www.w3.org/2000/svg"
   xmlns="http://www.w3.org/2000/svg"
   xmlns:sodipodi="http://sodipodi.sourceforge.net/DTD/sodipodi-0.dtd"
   xmlns:inkscape="http://www.inkscape.org/namespaces/inkscape"
   id="svg3249"
   version="1.1"
   inkscape:version="0.48.2 r9819"
   width="512"
   height="512"
   xml:space="preserve"
   sodipodi:docname="raven.svg"
   inkscape:export-filename="C:\Users\simon\PERSO\projects\orchard\orchard-ui\src\main\resources\graphics\raven.png"
   inkscape:export-xdpi="180"
   inkscape:export-ydpi="180"><metadata
     id="metadata3255"><rdf:RDF><cc:Work
         rdf:about=""><dc:format>image/svg+xml</dc:format><dc:type
           rdf:resource="http://purl.org/dc/dcmitype/StillImage" /><dc:title></dc:title></cc:Work></rdf:RDF></metadata><defs
     id="defs3253"><clipPath
       clipPathUnits="userSpaceOnUse"
       id="clipPath3315"><path
         d="m 3187.77,2185.29 c 13.96,-44.21 55.84,-102.38 55.84,-153.58 141.94,-43.04 283.89,-86.08 425.83,-129.14 -62.23,140.22 -205.33,263.54 -481.67,282.72"
         clip-rule="evenodd"
         id="path3317"
         inkscape:connector-curvature="0" /></clipPath><linearGradient
       x1="0"
       y1="0"
       x2="1"
       y2="0"
       gradientUnits="userSpaceOnUse"
       gradientTransform="matrix(5.5117,16.0071,55.5466,-19.1262,314.102,211.097)"
       spreadMethod="pad"
       id="linearGradient3319"><stop
         style="stop-opacity:1;stop-color:#4f4c4d"
         offset="0"
         id="stop3321" /><stop
         style="stop-opacity:1;stop-color:#ffffff"
         offset="1"
         id="stop3323" /></linearGradient><clipPath
       clipPathUnits="userSpaceOnUse"
       id="clipPath3337"><path
         d="m 3100.51,2296.98 c -150.87,133.56 -354.49,172.42 -515.53,128.92 -151.28,-40.86 -320.62,-160.57 -423.38,-366.26 312.97,79.11 625.94,158.23 938.91,237.34"
         clip-rule="evenodd"
         id="path3339"
         inkscape:connector-curvature="0" /></clipPath><linearGradient
       x1="0"
       y1="0"
       x2="1"
       y2="0"
       gradientUnits="userSpaceOnUse"
       gradientTransform="matrix(-5.445,17.8096,96.326,29.4498,212.476,211.174)"
       spreadMethod="pad"
       id="linearGradient3341"><stop
         style="stop-opacity:1;stop-color:#231f20"
         offset="0"
         id="stop3343" /><stop
         style="stop-opacity:1;stop-color:#ffffff"
         offset="1"
         id="stop3345" /></linearGradient><clipPath
       clipPathUnits="userSpaceOnUse"
       id="clipPath3353"><path
         d="m 1150.96,971.27 c 0.02,-0.891 0.92,-1.582 1.44,-2.286 l 0.67,0.188 -2.11,2.098"
         clip-rule="evenodd"
         id="path3355"
         inkscape:connector-curvature="0" /></clipPath><linearGradient
       x1="0"
       y1="0"
       x2="1"
       y2="0"
       gradientUnits="userSpaceOnUse"
       gradientTransform="matrix(-0.0072,0.0369,4.1047,0.7979,113.147,96.5937)"
       spreadMethod="pad"
       id="linearGradient3357"><stop
         style="stop-opacity:1;stop-color:#343131"
         offset="0"
         id="stop3359" /><stop
         style="stop-opacity:1;stop-color:#ffffff"
         offset="1"
         id="stop3361" /></linearGradient><clipPath
       clipPathUnits="userSpaceOnUse"
       id="clipPath3369"><path
         d="m 2459.52,1343.74 c -132.51,275.97 -463.11,327.31 -740.73,258.56 -222.21,-55.03 -462.57,-187.57 -705.74,-345.78 12.69,-25.37 27.6,-48.53 40.38,-74.08 25.55,-25.68 101.75,-176.35 104.14,-211.971 l 1301.95,373.271"
         clip-rule="evenodd"
         id="path3371"
         inkscape:connector-curvature="0" /></clipPath><linearGradient
       x1="0"
       y1="0"
       x2="1"
       y2="0"
       gradientUnits="userSpaceOnUse"
       gradientTransform="matrix(-7.1353,26.6293,141.002,37.7814,99.9951,122.812)"
       spreadMethod="pad"
       id="linearGradient3373"><stop
         style="stop-opacity:1;stop-color:#343131"
         offset="0"
         id="stop3375" /><stop
         style="stop-opacity:1;stop-color:#ffffff"
         offset="1"
         id="stop3377" /></linearGradient></defs><sodipodi:namedview
     pagecolor="#ffffff"
     bordercolor="#666666"
     borderopacity="1"
     objecttolerance="10"
     gridtolerance="10"
     guidetolerance="10"
     inkscape:pageopacity="0"
     inkscape:pageshadow="2"
     inkscape:window-width="838"
     inkscape:window-height="599"
     id="namedview3251"
     showgrid="false"
     inkscape:zoom="0.75908654"
     inkscape:cx="236.8125"
     inkscape:cy="277.72048"
     inkscape:window-x="0"
     inkscape:window-y="0"
     inkscape:window-maximized="0"
     inkscape:current-layer="g3259" /><g
     id="g3257"
     inkscape:groupmode="layer"
     inkscape:label="ink_ext_XXXXXX"
     transform="matrix(1.25,0,0,-1.25,0,512.00001)"><g
       id="g3259"
       transform="scale(0.1,0.1)"><path
         d="m 2200.6978,2174.7077 c -52.93,-8.351 -105.96,-21.281 -159.13,-41.504 -49.92,-19.004 -99.62,-44.406 -149,-78.449 -1.06,-3.066 -2.15,-6.551 -3.23,-10.019 -7.3,-23.426 -14.62,-46.875 -41.87,-61.543 l -0.01,0.011 -0.05,-0.05 c -4.45,-2.391 -9.62,-4.922 -15.37,-7.442 -5.64,-2.48 -11.41,-4.765 -17.09,-6.687 -38.25,-13.008 -83.15,-15.059 -108.63,20.293 l -0.06,0.086 c -5.43,7.558 -9.73,15.636 -13.02,24.074 l -0.06,-0.02 c -3.13,8.028 -5.35,16.492 -6.78,25.215 -6.47,39.363 4.43,83.215 18.65,117.149 l 0,0.136 c 13.63,32.539 40.4,36.766 67.16,40.977 5.04,0.789 10.1,1.601 13.6,2.566 24.12,13.125 44.66,30.11 59.54,53.145 15.83,24.531 26.08,56.719 28.64,99.394 l 3.34,55.481 49.83,-24.328 284.11,-138.653 -16.22,-33.316 5.65,-36.516 0,0 z m -185.5,27.742 c 22.48,8.555 45.06,15.93 67.66,22.278 l -142.19,69.394 c -6.96,-31.75 -18.26,-58.593 -33.02,-81.457 -23,-35.625 -53.64,-60.906 -89.05,-79.715 l -4.06,-1.726 c -10.43,-4.055 -20.74,-5.688 -31.03,-7.297 -6.15,-0.977 -7.87,8.641 -10.09,3.348 l -0.05,0.031 c -9.96,-23.848 -17.82,-53.262 -13.96,-76.758 0.57,-3.527 1.47,-6.926 2.73,-10.148 l 0,-0.145 c 1.08,-2.781 2.44,-5.371 4.1,-7.668 l 0.06,-0.097 c 0.8,-1.114 12.82,2.55 24.9,6.652 4.12,1.394 7.91,2.89 11.28,4.375 3.27,1.426 6.63,3.086 9.87,4.832 l 0.01,-0.01 0.05,0.039 c 0.6,0.32 3.42,9.363 6.23,18.379 2.81,9.004 5.63,18.027 10.65,28.035 l 0.15,0.442 0.36,0.703 11.44,13.183 c 57.91,41.121 115.91,71.231 173.96,93.328"
         style="fill:#231f20;fill-opacity:1;fill-rule:nonzero;stroke:none"
         id="path3261"
         inkscape:connector-curvature="0" /><path
         d="m 2195.0478,2211.2237 c -111.35,-17.57 -222.29,-54.074 -332.37,-132.238 -10.91,-21.055 -11.85,-51.946 -32.74,-63.196 -27.51,-14.82 -75.35,-30.242 -93.63,-4.883 -25.48,35.344 -13.93,90.52 2.93,130.715 8.57,20.43 41.31,16.043 61.97,24.071 60.4,32.082 103.78,85.097 109.73,184.172 94.7,-46.211 189.41,-92.422 284.11,-138.641"
         style="fill:#231f20;fill-opacity:1;fill-rule:evenodd;stroke:none"
         id="path3263"
         inkscape:connector-curvature="0" /><path
         d="m 1881.9878,1921.8567 29.52,10.75 c 29.86,23.672 56.44,41.906 77.94,51.64 41.79,18.946 72.47,13.977 87.85,-23.886 l 27.06,-66.61 -69.94,16.629 c -7.74,1.84 -26.8,-18.445 -45.85,-38.719 -14.33,-15.254 -28.69,-30.527 -45.24,-42.441 l -25.87,-18.613 -22.23,22.812 -27.14,27.871 -39.89,40.957 53.79,19.61"
         style="fill:#231f20;fill-opacity:1;fill-rule:nonzero;stroke:none"
         id="path3265"
         inkscape:connector-curvature="0" /><path
         d="m 1894.5978,1887.0787 c 11.76,4.289 23.52,8.567 35.29,12.864 58.97,47.351 102.74,71.953 113.07,46.511 -42.78,10.168 -80.81,-58.164 -121.22,-87.246 l -27.14,27.871"
         style="fill:#4f4c4c;fill-opacity:1;fill-rule:evenodd;stroke:none"
         id="path3267"
         inkscape:connector-curvature="0" /><path
         d="m 1920.1378,1923.9067 46.71,-4.64 c 55.12,11.426 101.56,18.078 134.34,17.297 60.46,-1.477 89.74,-23.672 76.14,-74.375 l -15.92,-59.309 -45.08,41.777 c -11.13,10.317 -56.07,-5.039 -100.99,-20.378 -28.93,-9.883 -57.9,-19.786 -85.59,-24.266 l -36.99,-5.988 -5.46,37.129 -7.44,50.605 -6.89,46.844 47.17,-4.696"
         style="fill:#231f20;fill-opacity:1;fill-rule:nonzero;stroke:none"
         id="path3269"
         inkscape:connector-curvature="0" /><path
         d="m 1916.5078,1887.1177 c 17.48,-1.738 34.95,-3.476 52.43,-5.214 110.13,23.203 182.69,27.414 172.61,-10.157 -41.13,38.106 -145.06,-23.484 -217.6,-35.234 l -7.44,50.605"
         style="fill:#4f4c4c;fill-opacity:1;fill-rule:evenodd;stroke:none"
         id="path3271"
         inkscape:connector-curvature="0" /><path
         d="m 1831.6078,2033.4777 124.06,-149.688 33.66,-24.972 c 50.82,-17.715 94.69,-36.258 124.64,-54.239 17.41,-10.457 30.93,-21.257 39.58,-32.273 15.37,-19.602 18.7,-40 7.72,-61.035 -2.87,-5.469 -6.59,-10.449 -11.17,-14.883 l -44.06,-42.676 -17.22,58.906 c -4.5,15.438 -56.7,27.422 -107.08,38.977 -24.83,5.691 -49.3,11.316 -71.17,18.668 -30.48,-9.637 -61.09,-6.648 -90.42,-3.77 -28.7,2.825 -55.34,5.442 -63.02,-13.796 l -32.9,-82.383 -35.34,81.367 c -21.4,49.297 0.9,81.75 48.46,104.18 18.88,8.914 42.7,15.847 69.25,21.589 l -71.1,106.36 -6.08,24.492 c 3.45,31.473 17.68,49.082 42.7,52.801 18.13,2.687 37.06,-5.555 56.74,-24.727 l 2.75,-2.898"
         style="fill:#231f20;fill-opacity:1;fill-rule:nonzero;stroke:none"
         id="path3273"
         inkscape:connector-curvature="0" /><path
         d="m 1803.0678,2009.8647 c 42.26,-50.977 84.5,-101.954 126.76,-152.942 14.1,-10.457 28.2,-20.926 42.3,-31.387 106.43,-36.648 180.14,-75.574 152.19,-102.636 -15.72,53.82 -145.82,59.621 -214.09,86.789 -64.81,-30.352 -157.13,32.531 -187.44,-43.371 -21.98,50.656 54.31,70.617 145.85,84.843 l -102.42,153.227 c 2.73,24.93 15.02,26.746 36.85,5.477"
         style="fill:#4f4c4c;fill-opacity:1;fill-rule:evenodd;stroke:none"
         id="path3275"
         inkscape:connector-curvature="0" /><path
         d="m 2175.1978,1771.6887 30.48,27.98 c 23.04,41.563 44.88,75.242 64.87,96.621 35.13,37.559 68.58,46.004 99.73,14.473 l 50.37,-51.008 -70.95,-11.433 c -15.1,-2.434 -28.44,-37.766 -41.78,-73.098 -9.15,-24.238 -18.32,-48.496 -31.27,-69.461 l -16.78,-27.129 -29.15,12.5 -44.95,19.277 -52.7,22.606 42.13,38.672"
         style="fill:#231f20;fill-opacity:1;fill-rule:nonzero;stroke:none"
         id="path3277"
         inkscape:connector-curvature="0" /><path
         d="m 2200.2678,1744.4537 c 11.59,10.633 23.17,21.278 34.77,31.922 45.66,83.379 84.61,133.02 108.87,108.457 -54.57,-8.797 -65.81,-106.433 -98.71,-159.656 l -44.93,19.277"
         style="fill:#918f90;fill-opacity:1;fill-rule:evenodd;stroke:none"
         id="path3279"
         inkscape:connector-curvature="0" /><path
         d="m 2214.9678,1790.5477 58.04,17.578 c 58.36,39.754 108.79,69.774 146.7,84.422 63.7,24.641 103.75,14.863 111.26,-42.195 l 8,-60.774 -57.4,21.223 c -23.38,8.641 -70.24,-32.648 -117.08,-73.945 -28.49,-25.11 -56.98,-50.227 -86.39,-68.399 l -31.88,-19.707 -19.26,32.168 -33.01,55.156 -24.37,40.731 45.39,13.742"
         style="fill:#231f20;fill-opacity:1;fill-rule:nonzero;stroke:none"
         id="path3281"
         inkscape:connector-curvature="0" /><path
         d="m 2225.6778,1755.0477 c 21.12,6.399 42.25,12.797 63.37,19.192 116.69,79.98 198.88,119.816 205.27,71.335 -66.09,24.438 -157.09,-97.117 -235.64,-145.683 l -33,55.156"
         style="fill:#918f90;fill-opacity:1;fill-rule:evenodd;stroke:none"
         id="path3283"
         inkscape:connector-curvature="0" /><path
         d="m 2224.8778,2246.2897 c -32.67,-42.929 -62.08,-88.965 -86.28,-139.953 -22.85,-48.144 -41.15,-100.898 -53.3,-159.89 1.37,-3 2.97,-6.27 4.6,-9.532 10.85,-21.836 21.72,-43.664 12.41,-72.859 l 0.04,-0.012 -0.06,-0.176 -0.14,-0.285 c -1.78,-5.484 -3.77,-10.945 -5.88,-16.062 -2.4,-5.774 -5.01,-11.457 -7.74,-16.699 -18.65,-35.832 -49.63,-68.301 -92.42,-60.43 l 0,0.027 -0.03,0.012 -0.29,0 c -9.34,1.738 -18.02,4.59 -26.05,8.332 -7.49,3.484 -14.91,8.086 -22.18,13.543 -31.85,23.934 -54.33,63.211 -67.58,97.684 -12.69,33.039 3.62,54.492 19.95,75.941 l 0.06,-0.051 c 3.14,4.121 6.29,8.262 8.2,11.719 8.23,26.023 11.23,52.402 6.04,79.316 -5.52,28.582 -20.39,58.887 -48.1,91.512 l -35.83,42.207 52.78,16.906 301.09,96.414 11.29,-35.203 29.42,-22.461 0,0 z m -153.21,-108.371 c 10.37,21.856 21.6,42.852 33.53,63.098 l -150.82,-48.293 c 16.98,-27.793 27.4,-55.067 32.58,-81.902 8.01,-41.485 3.36,-80.899 -9.2,-118.973 l -1.59,-4.067 c -4.5,-9.628 -10.96,-18.132 -17.42,-26.621 l 0,-0.144 c -3.85,-5.059 -11.91,0.801 -9.82,-4.66 9.23,-24.004 23.89,-50.606 42.97,-64.95 2.64,-1.984 5.68,-3.82 9.14,-5.429 2.91,-1.36 5.73,-2.336 8.37,-2.824 l -0.01,-0.028 0.04,0 c 1.35,-0.246 7.46,10.625 13.32,21.887 2.04,3.922 3.75,7.594 5.12,10.906 1.59,3.828 2.85,7.188 3.77,9.961 l -0.05,0.02 0.05,0.164 0.15,0.293 c 0.24,0.742 -4.01,9.289 -8.25,17.824 -4.44,8.918 -8.88,17.871 -12.04,28.496 l -0.04,-0.012 -0.03,0.11 -0.87,17.531 c 13.32,69.5 34.39,131.344 61.1,187.613"
         style="fill:#231f20;fill-opacity:1;fill-rule:nonzero;stroke:none"
         id="path3285"
         inkscape:connector-curvature="0" /><path
         d="m 2195.4578,2268.7507 c -68.25,-89.707 -123.11,-192.812 -148.53,-325.402 6.69,-22.762 27.37,-45.723 20.07,-68.301 -9.61,-29.726 -33.5,-73.953 -64.23,-68.289 -42.86,7.91 -72.68,55.742 -88.31,96.414 -7.95,20.684 18.73,40.176 28.09,60.266 21.43,64.941 16.08,133.23 -48.17,208.894 100.37,32.141 200.72,64.278 301.08,96.418"
         style="fill:#231f20;fill-opacity:1;fill-rule:evenodd;stroke:none"
         id="path3287"
         inkscape:connector-curvature="0" /><path
         d="m 2052.1278,1875.6537 216.75,-114.364 54.56,-13.644 c 67.74,3.965 127.35,3.672 169.83,-2.645 23.96,-3.554 43.75,-9.258 58.2,-17.383 23.85,-13.418 35.84,-32.461 33.57,-57.937 -0.58,-6.606 -2.29,-13.227 -5.14,-19.828 l -24.36,-56.258 -38.38,47.715 c -16.23,20.195 -85.43,8.476 -152.19,-2.832 -32.39,-5.488 -64.34,-10.879 -93.6,-12.676 -29.76,-26.008 -66.77,-37.285 -102.26,-48.078 -38.19,-11.621 -73.64,-22.402 -73.19,-55.7618 l 1.18,-88.6602 -63.77,61.5703 c -43.8,42.3087 -34.15,86.3597 6.49,131.1527 19.64,21.652 47.64,43.363 79.87,64.992 l -145.52,97.082 -14.92,20.426 c -9.73,33.332 -3.1,56.906 19.92,70.722 17.1,10.266 40.22,9.602 69.34,-2 l 3.62,-1.593"
         style="fill:#231f20;fill-opacity:1;fill-rule:nonzero;stroke:none"
         id="path3289"
         inkscape:connector-curvature="0" /><path
         d="m 2034.8878,1842.9107 c 73.6,-38.828 147.19,-77.656 220.79,-116.496 21.42,-5.351 42.81,-10.711 64.23,-16.062 141.19,8.703 245.51,-0.996 226.09,-45.86 -44.16,54.903 -198,-1.015 -290.32,-2.355 -60.63,-66.445 -198.07,-37.898 -196.71,-140.6055 -49.91,48.2145 29.03,108.1365 128.46,168.7225 l -192.68,128.563 c -8.84,30.246 4.54,38.281 40.14,24.093"
         style="fill:#918f90;fill-opacity:1;fill-rule:evenodd;stroke:none"
         id="path3291"
         inkscape:connector-curvature="0" /><path
         d="m 1022.5378,2342.0787 604.53,-173.515 -71.94,-29.024 c -108.57,-43.808 -217.27,-91.015 -323.35,-140.418 -56.09,-26.132 -112.169,-53.242 -166.544,-82.773 -34.336,-18.652 -79.34401,-43.32 -108.52801,-69.277 -33.648,-29.934 -77.371,-57.481 -115.66,-81.204 -53.703,-33.269 -108.945,-64.57 -164.48,-94.687 -69.633,-37.742 -140.778,-74.363 -212.754,-107.449 -25.43,-11.692 -104.785,-49.7777 -132.242,-44.2777 -50.907,10.1836 -44.516,29.7927 -76.743,58.4567 -8.468,7.528 -29.7496,11.602 -40.6598,13.711 -28.1797,5.43 -65.9961,9.707 -82.76951,36.184 -8.86719,14.012 -9.37891,30.086 -4.92969,45.68 9.10938,31.894 120.301,113.632 147.418,134.414 95.605,73.281 193.715,143.996 291.723,214.035 147.812,105.633 296.816,210.086 446.54301,313.008 l 10.386,7.136"
         style="fill:#231f20;fill-opacity:1;fill-rule:evenodd;stroke:none"
         id="path3293"
         inkscape:connector-curvature="0" /><path
         d="m 1027.2768,2312.9387 c 0,0 -859.06681,-590.547 -875.12931,-646.785 -16.06251,-56.243 84.3003,-36.153 120.4293,-68.293 36.133,-32.137 24.086,-44.188 64.231,-52.223 40.137,-8.039 493.769,224.969 602.156,321.383 108.38301,96.418 606.17401,297.277 606.17401,297.277 l -517.861,148.641"
         style="fill:#231f20;fill-opacity:1;fill-rule:evenodd;stroke:none"
         id="path3295"
         inkscape:connector-curvature="0" /><path
         d="m 1543.8078,2855.6417 c 17.88,26.89 36.82,53.93 56.76,80.7 22.57,30.3 46.53,60.57 71.78,90.3 129.06,151.86 298.6,298.62 507.92,385.73 10.97,23.46 23.39,48.06 37.28,73.19 16.29,29.46 35,60.26 56.29,91.6 108.96,160.4 276.95,317.7 513.48,340.91 306.36,30.03 460.77,-140.11 540.95,-228.47 5.95,-6.55 11.46,-12.64 16.33,-17.87 54.55,-6.03 104.62,-16.71 150.33,-31.01 48.75,-15.25 92.77,-34.6 132.26,-56.79 205.05,-115.24 290.37,-310.24 288.2,-413.19 -0.4,-20.4 -17.27,-36.62 -37.67,-36.23 -6.07,0.13 -11.79,1.7 -16.79,4.38 l -0.02,-0.02 c -141.15,75.79 -297.17,65.8 -428.46,57.38 -74.48,-4.77 -141.61,-9.08 -198.54,1.96 -8.23,-14.59 -18.12,-28.53 -29.45,-41.82 -18.11,-21.21 -39.94,-40.67 -64.41,-58.15 -102.17,-73.06 -254.41,-112.24 -370.55,-101.71 27.97,-145.24 -16.99,-310.95 -108.9,-455.66 -95.92,-151.019 -243.68,-280.285 -413.05,-339.593 -18.51,-6.493 -36.93,-12.071 -55.15,-16.668 l -2.15,-0.539 c -35.63,-9.012 -68.33,-17.625 -102.7,-26.68 -195.61,-51.551 -439.52,-115.828 -654.38,-118.418 -5.91,-0.067 -11.5,1.269 -16.49,3.683 l -0.03,-0.058 -457.63301,220.957 c -18.399,8.875 -26.117,30.996 -17.238,49.394 0.332,0.684 0.687,1.356 1.046,2.012 l -0.031,0.02 c 68.52801,121.96 157.19601,225.51 261.01601,315.18 100.77,87.04 215.63,160.78 340,225.48 l 0,0 z m 116.16,36.66 c -21.31,-28.61 -40.82,-56.54 -58.57,-83.45 -3.43,-6.03 -8.6,-11.17 -15.22,-14.59 -122.86,-63.28 -235.8,-135.23 -333.98,-220.02 -87.64,-75.71 -163.718,-161.838 -224.843,-261.518 l 413.643,-199.707 c 203.32,4.101 438.55,66.086 627.72,115.937 38.07,10.02 74.48,19.621 103.56,26.973 l 2.15,0.539 c 16.84,4.246 33.11,9.149 48.79,14.637 152.96,53.566 287.12,171.419 374.79,309.469 86.66,136.44 127.23,291.52 94.39,421.69 -2.39,9.49 -5.08,18.54 -8.02,27.1 -3.1,7.56 -3.72,16.19 -1.21,24.63 5.84,19.61 26.46,30.76 46.07,24.92 99.25,-29.82 262.98,4.56 367.93,79.6 19.58,14 36.91,29.4 51.08,45.98 13.36,15.67 23.84,32.45 30.6,50.15 l 0.04,-0.02 0.25,0.6 0.04,0.1 0.05,-0.02 c 7.19,17.98 27.24,27.48 45.87,21.32 49.13,-16.32 121.12,-11.71 202.71,-6.48 122.4,7.84 264.79,16.95 404.87,-37.07 -24.37,87.92 -100.28,206.77 -241.71,286.23 -35.27,19.83 -74.58,37.11 -118.07,50.72 -44.01,13.76 -92.18,23.83 -144.68,29.1 l 0,0.01 -2.99,0.29 c -8.79,0.5 -17.43,4.12 -24.13,10.86 -8.86,8.86 -17.63,18.53 -27.58,29.49 -71.7,79.01 -209.75,231.13 -479.25,204.7 -209.39,-20.54 -360.41,-163.17 -459.3,-308.74 -19.14,-28.17 -36.66,-57.14 -52.5,-85.81 -15.6,-28.21 -29.2,-55.59 -40.84,-81.26 l -0.04,0.02 c -3.76,-8.5 -10.73,-15.6 -20.04,-19.33 -202.83,-81.19 -367.52,-223.21 -492.7,-370.52 -24.7,-29.08 -47.67,-58.05 -68.88,-86.53"
         style="fill:#231f20;fill-opacity:1;fill-rule:nonzero;stroke:none"
         id="path3297"
         inkscape:connector-curvature="0" /><path
         d="m 1569.2178,2827.1517 c 134.13,203.86 347.91,440.18 638.57,556.53 85.93,189.5 273.19,467.2 583,497.59 325.73,31.94 470.09,-178.44 536.53,-244.92 397.4,-37.64 553.88,-334.02 551.12,-464.89 -244.8,131.47 -519.21,21.68 -664.93,70.1 -59.05,-155.06 -343.76,-243.54 -494.85,-198.14 104.2,-297.55 -174.66,-731.89 -535.25,-822.886 -205.55,-51.863 -500.46,-141.589 -750.67,-144.617 -152.55,73.653 -305.09,147.305 -457.64101,220.957 132.72301,236.196 343.64101,401.236 594.12101,530.276"
         style="fill:#231f20;fill-opacity:1;fill-rule:evenodd;stroke:none"
         id="path3299"
         inkscape:connector-curvature="0" /><path
         d="m 3117.8578,3638.6617 0.04,0 0,-0.15 c 23.97,-0.01 45.68,-9.74 61.37,-25.45 15.59,-15.6 25.25,-37.23 25.29,-61.18 l 0.15,0 0,-0.12 -0.15,0 c -0.01,-23.96 -9.74,-45.67 -25.45,-61.37 -15.6,-15.6 -37.22,-25.26 -61.18,-25.29 l 0,-0.15 -0.11,0 0,0.15 c -23.97,0.01 -45.69,9.74 -61.38,25.45 -15.59,15.6 -25.26,37.23 -25.29,61.18 l -0.15,0 0,0.11 0.15,0 c 0.02,23.98 9.74,45.69 25.46,61.38 15.59,15.59 37.22,25.26 61.17,25.29 l 0,0.15 0.08,0 0,0 z m 0.04,-74.03 0,-0.15 -0.12,0 0,0.15 c -3.45,-0.01 -6.65,-1.48 -9.02,-3.85 -2.3,-2.29 -3.73,-5.46 -3.73,-8.94 l 0.15,0 0,-0.11 -0.15,0 c 0.01,-3.45 1.48,-6.66 3.85,-9.03 2.29,-2.29 5.46,-3.72 8.94,-3.72 l 0,0.15 0.11,0 0,-0.15 c 3.45,0.01 6.65,1.48 9.02,3.85 2.29,2.29 3.72,5.46 3.72,8.93 l -0.15,0 0,0.12 0.15,0 c 0,3.46 -1.48,6.66 -3.84,9.02 -2.29,2.3 -5.46,3.73 -8.93,3.73"
         style="fill:#656263;fill-opacity:1;fill-rule:nonzero;stroke:none"
         id="path3301"
         inkscape:connector-curvature="0" /><path
         d="m 3117.8578,3502.0417 c 27.4,0 49.76,22.36 49.76,49.76 0,27.41 -22.36,49.77 -49.76,49.77 -27.42,0 -49.77,-22.36 -49.77,-49.77 0,-27.4 22.35,-49.76 49.77,-49.76"
         style="fill:#231f20;fill-opacity:1;fill-rule:evenodd;stroke:none"
         id="path3303"
         inkscape:connector-curvature="0" /><path
         d="m 2540.6178,2981.9017 c 35.7,-27.82 66.32,-58.74 88.74,-92.63 28.13,-42.54 43.56,-89.54 40.66,-140.9 -2.84,-50.07 -23.19,-103.11 -66.43,-158.58 -40.15,-51.5 -100.52,-105.63 -185.73,-161.99 l -0.13,-0.086 0.01,0 c -41.72,-27.598 -84.34,-53.195 -127.72,-76.582 -43.03,-23.215 -87.31,-44.473 -132.73,-63.586 -230.04,-96.836 -478.34,-132.508 -730.84,-83.691 l -51.6,-11.356 c -1.02,-0.226 -2.02,-0.39 -3.04,-0.519 -334.856,-73.836 -923.73101,-203.407 -1134.71501,-159.129 -74.418,15.617 -112.71094,51.035 -99.7187,112.957 3.3906,16.328 17.082,27.89 32.8632,29.328 151.9185,20.633 378.7145,179.707 637.9255,361.494 538.63501,377.78 1212.60501,850.46 1732.45501,445.27 l 0,0 z m 27.03,-133.48 c -17.89,27.04 -42.95,52.19 -72.53,75.24 -476.7,371.57 -1125.84,-83.72 -1644.65001,-447.58 -242.34,-169.967 -457.18,-320.632 -621.711,-364.296 6.387,-2.398 14.231,-4.566 23.402,-6.492 195.774,-41.094 774.38701,86.219 1103.57901,158.809 1.04,0.32 2.09,0.594 3.17,0.84 l 58.12,12.781 c 5.14,1.289 10.63,1.476 16.18,0.363 240.06,-48.039 476.42,-14.621 695.4,77.559 42.36,17.832 84.52,38.113 126.34,60.683 41.41,22.323 82.06,46.723 121.79,73.013 l 0.28,0.17 c 78.4,51.86 133.02,100.48 168.33,145.77 33.23,42.63 48.78,81.67 50.78,117.15 1.93,34.21 -8.87,66.32 -28.48,95.99"
         style="fill:#231f20;fill-opacity:1;fill-rule:nonzero;stroke:none"
         id="path3305"
         inkscape:connector-curvature="0" /><path
         d="m 2517.8778,2952.7817 c 148.16,-115.49 197.15,-284.05 -120.43,-494.12 -291.12,-192.567 -627.51,-285.782 -971.48,-216.934 -390.742,-85.703 -1292.27735,-293.555 -1252.37501,-103.446 483.195,63.165 1597.23501,1396.78 2344.28501,814.5"
         style="fill:#353132;fill-opacity:1;fill-rule:evenodd;stroke:none"
         id="path3307"
         inkscape:connector-curvature="0" /><path
         d="m 3251.8678,3715.9117 c -20.94,-89.29 153.12,-251.2 30.02,-320.77 -30.21,-17.07 -48.08,-34.02 -56.78,-50.96 -19.34,-37.66 6.74,-75.22 43.7,-113.67 153.3,-15.26 393.05,57.26 609.63,-59.05 0.64,29.97 -7.08,68.6 -24.12,110.81 -57.39,142.2 -220.58,325.05 -527,354.08 -18.43,18.45 -42.83,47.62 -75.45,79.56"
         style="fill:#4f4c4c;fill-opacity:1;fill-rule:evenodd;stroke:none"
         id="path3309"
         inkscape:connector-curvature="0" /><path
         d="m 3883.8178,3226.5117 c 9.96,-9.21 18.4,-18.66 25.03,-28.3 l -0.04,-0.02 c 4.13,-5.94 6.57,-13.13 6.59,-20.9 l 0.03,-2.87 -0.01,0 0.01,-0.58 -0.03,-1.01 c 0.25,-6.37 -1.13,-12.87 -4.36,-18.9 -9.68,-18 -32.13,-24.74 -50.13,-15.06 -141.15,75.8 -297.15,65.8 -428.46,57.38 -60.64,-3.88 -116.34,-7.45 -166.06,-2.65 -8.88,0.57 -17.58,4.35 -24.25,11.27 -21,21.85 -39.15,43.96 -49.9,67.27 -13.37,28.97 -15.63,58.41 -0.01,88.85 2.21,4.3 4.63,8.38 7.27,12.21 2.35,3.42 5.01,6.84 7.97,10.31 11.4,14.06 31.7,17.98 47.68,8.43 7.41,-4.44 16.03,-8.19 25.7,-11.38 10.26,-3.38 21.36,-5.99 33.2,-8.02 10.9,-1.86 21.65,-3.24 32.35,-4.24 11.23,-1.06 23.45,-1.87 36.39,-2.52 19.49,-0.98 37.87,-1.54 56.97,-2.12 19.7,-0.61 40.14,-1.24 59.12,-2.1 l 0.7,-0.02 2.74,-0.13 c 28.27,-1.35 59.84,-5.47 92.37,-11.87 3.47,-0.67 9.9,-2.06 19.29,-4.13 6.45,-1.43 12.41,-2.81 17.87,-4.14 l 1.63,-0.35 0.81,-0.2 c 79.56,-19.53 162.69,-51.49 218.31,-89.48 11.18,-7.65 21.67,-15.9 31.22,-24.73 l 0,0 z m -299.34,49.5 -3.97,0.81 c -29.72,5.84 -57.66,9.56 -81.66,10.7 l -2.75,0.13 -0.26,0.01 c -21.28,0.98 -40.01,1.55 -58.1,2.11 -20.96,0.64 -41.15,1.25 -58.43,2.12 -13.4,0.68 -26.65,1.57 -39.85,2.82 -13.73,1.29 -26.44,2.87 -37.87,4.82 -15.58,2.66 -30.27,6.12 -43.93,10.63 l -0.92,0.29 c 0.65,-2.38 1.57,-4.82 2.72,-7.31 5.31,-11.52 14.86,-23.98 26.58,-36.93 40.86,-2.54 89.39,0.58 141.79,3.93 49.45,3.16 102.14,6.54 156.65,5.87"
         style="fill:#231f20;fill-opacity:1;fill-rule:nonzero;stroke:none"
         id="path3327"
         inkscape:connector-curvature="0" /><path
         d="m 3878.4578,3177.1417 c -36.92,53.8 -147.73,101.81 -253.01,127.65 -44.64,10.96 -88.28,17.93 -124.87,19.67 -42.65,2.03 -82.85,2.52 -119.53,4.38 -26.36,1.34 -50.89,3.37 -73.23,7.2 -27.42,4.7 -51.55,12.09 -71.64,24.17 -4.67,-5.35 -8.32,-10.69 -11.07,-16.03 -19.34,-37.66 6.74,-75.22 43.7,-113.67 153.3,-15.26 393.05,57.26 609.63,-59.05 0.04,1.86 0.05,3.75 0.02,5.68"
         style="fill:#353132;fill-opacity:1;fill-rule:evenodd;stroke:none"
         id="path3329"
         inkscape:connector-curvature="0" /><path
         d="m 3421.5478,3563.0517 c 29.28,-9.13 50.37,-25.01 47.11,-35.47 -3.26,-10.45 -29.63,-11.53 -58.92,-2.4 -29.27,9.12 -50.37,25 -47.12,35.45 3.26,10.46 29.65,11.54 58.93,2.42"
         style="fill:#231f20;fill-opacity:1;fill-rule:evenodd;stroke:none"
         id="path3331"
         inkscape:connector-curvature="0" /><g
         id="g3349"
         transform="translate(126.46779,1433.3017)"><g
           id="g3351"
           clip-path="url(#clipPath3353)"><path
             d="m 1150.96,971.27 c 0.02,-0.891 0.92,-1.582 1.44,-2.286 l 0.67,0.188 -2.11,2.098"
             style="fill:url(#linearGradient3357);fill-opacity:1;fill-rule:nonzero;stroke:none"
             id="path3363"
             inkscape:connector-curvature="0" /></g></g></g></g></svg>