<?xml version="1.0" encoding="UTF-8" standalone="no"?>
<!-- Created with Inkscape (http://www.inkscape.org/) -->

<svg
   xmlns:dc="http://purl.org/dc/elements/1.1/"
   xmlns:cc="http://creativecommons.org/ns#"
   xmlns:rdf="http://www.w3.org/1999/02/22-rdf-syntax-ns#"
   xmlns:svg="http://www.w3.org/2000/svg"
   xmlns="http://www.w3.org/2000/svg"
   xmlns:sodipodi="http://sodipodi.sourceforge.net/DTD/sodipodi-0.dtd"
   xmlns:inkscape="http://www.inkscape.org/namespaces/inkscape"
   width="410"
   height="410"
   id="svg4687"
   version="1.1"
   inkscape:version="0.48.2 r9819"
   sodipodi:docname="tree.svg"
   inkscape:export-filename="C:\Users\simon\PERSO\projects\orchard\orchard-ui\src\main\resources\graphics\tree.png"
   inkscape:export-xdpi="300"
   inkscape:export-ydpi="300">
  <defs
     id="defs4689" />
  <sodipodi:namedview
     id="base"
     pagecolor="#ffffff"
     bordercolor="#666666"
     borderopacity="1.0"
     inkscape:pageopacity="0.0"
     inkscape:pageshadow="2"
     inkscape:zoom="0.98994949"
     inkscape:cx="350.70578"
     inkscape:cy="73.239588"
     inkscape:document-units="px"
     inkscape:current-layer="layer1"
     showgrid="false"
     inkscape:window-width="1600"
     inkscape:window-height="848"
     inkscape:window-x="-8"
     inkscape:window-y="-8"
     inkscape:window-maximized="1"
     fit-margin-top="0"
     fit-margin-left="0"
     fit-margin-right="0"
     fit-margin-bottom="0" />
  <metadata
     id="metadata4692">
    <rdf:RDF>
      <cc:Work
         rdf:about="">
        <dc:format>image/svg+xml</dc:format>
        <dc:type
           rdf:resource="http://purl.org/dc/dcmitype/StillImage" />
        <dc:title></dc:title>
      </cc:Work>
    </rdf:RDF>
  </metadata>
  <g
     inkscape:label="Calque 1"
     inkscape:groupmode="layer"
     id="layer1"
     transform="translate(-10.767857,-441.64067)">
    <path
       inkscape:connector-curvature="0"
       d="m 404.26786,606.19191 c 0,-20.06125 -13.46875,-36.965 -31.8525,-42.19375 0.71375,-2.565 1.1025,-5.26375 1.1025,-8.05625 0,-15.51375 -11.775,-28.27375 -26.875,-29.83625 -3.1875,-17.3725 -18.395,-30.53875 -36.6875,-30.53875 -3.63875,0 -7.1525,0.53125 -10.4775,1.5025 -4.3575,-11.1925 -15.2275,-19.125 -27.96,-19.125 -4.085,0 -7.97625,0.81875 -11.525,2.29625 -6.5975,-14.8275 -21.44875,-25.17375 -38.72375,-25.17375 -20.60125,0 -37.7625,14.70375 -41.57875,34.18625 -8.89125,-11.875 -23.07125,-19.56 -39.048,-19.56 -22.355,0 -41.18313,15.0525 -46.93363,35.57375 -13.475498,2.945 -23.566373,14.94125 -23.566373,29.3 0,0.375 0.01412,0.7475 0.02737,1.11875 -11.98975,3.93 -20.652375,15.2025 -20.652375,28.50625 0,3.09625 0.47075,6.08125 1.340375,8.89 -12.084995,7.815 -20.08987,21.39875 -20.08987,36.86125 0,17.54625 10.30375,32.67875 25.1855,39.69875 0.5445,9.09 5.132875,17.09 11.994625,22.22125 -0.27725,1.945 -0.430625,3.93125 -0.430625,5.955 0,22.98875 18.63775,41.62375 41.625003,41.62375 7.04,0 13.6675,-1.7525 19.4805,-4.8375 5.11663,11.04625 16.295,18.7125 29.27,18.7125 9.56625,0 18.15375,-4.1675 24.06,-10.7825 8.19625,10.22625 20.78375,16.7825 34.90875,16.7825 10.385,0 19.935,-3.54875 27.525,-9.4875 4.1875,4.66125 10.245,7.6125 17.00625,7.6125 9.39125,0 17.45125,-5.6625 20.97375,-13.755 7.42125,8.43 18.2875,13.755 30.40125,13.755 22.3675,0 40.5,-18.13125 40.5,-40.5 0,-4.59875 -0.77625,-9.0125 -2.18875,-13.1325 0.10375,0.001 0.20875,0.007 0.31375,0.007 16.5675,0 30,-13.43125 30,-30 0,-2.94125 -0.43125,-5.78 -1.22,-8.465 14.29125,-7.23375 24.095,-22.0475 24.095,-39.16"
       style="fill:#689d2e;fill-opacity:1;fill-rule:nonzero;stroke:none"
       id="path3705" />
    <path
       inkscape:connector-curvature="0"
       d="m 404.26786,598.31566 c 0,-20.06125 -13.46875,-36.96375 -31.8525,-42.1925 0.71375,-2.565 1.1025,-5.26375 1.1025,-8.05625 0,-15.5125 -11.775,-28.27375 -26.875,-29.83625 -3.1875,-17.3725 -18.395,-30.5375 -36.6875,-30.5375 -3.63875,0 -7.1525,0.53 -10.4775,1.50125 -4.3575,-11.19125 -15.2275,-19.12625 -27.96,-19.12625 -4.085,0 -7.97625,0.82 -11.525,2.2975 -6.5975,-14.82875 -21.44875,-25.1725 -38.72375,-25.1725 -20.60125,0 -37.7625,14.7025 -41.57875,34.18375 -8.89125,-11.87375 -23.07125,-19.56 -39.048,-19.56 -22.355,0 -41.18313,15.05375 -46.93363,35.57375 -13.475498,2.94625 -23.566373,14.94125 -23.566373,29.30125 0,0.37625 0.01412,0.7475 0.02737,1.11875 -11.989745,3.92875 -20.65237,15.2025 -20.65237,28.50625 0,3.09625 0.47075,6.08125 1.340375,8.89125 -12.085,7.81375 -20.089875,21.3975 -20.089875,36.86 0,17.54625 10.30375,32.67875 25.1855,39.69875 0.5445,9.09 5.132875,17.09 11.994625,22.22125 -0.27725,1.945 -0.430625,3.93125 -0.430625,5.95375 0,22.98875 18.63775,41.62625 41.625003,41.62625 7.04,0 13.6675,-1.75375 19.4805,-4.83875 5.11663,11.04625 16.295,18.7125 29.27,18.7125 9.56625,0 18.15375,-4.1675 24.06,-10.7825 8.19625,10.22625 20.78375,16.7825 34.90875,16.7825 10.385,0 19.935,-3.54875 27.525,-9.4875 4.1875,4.6625 10.245,7.61375 17.00625,7.61375 9.39125,0 17.45125,-5.66375 20.97375,-13.75625 7.42125,8.42875 18.2875,13.75625 30.40125,13.75625 22.3675,0 40.5,-18.1325 40.5,-40.5 0,-4.6 -0.77625,-9.01375 -2.18875,-13.13375 0.10375,0.001 0.20875,0.007 0.31375,0.007 16.5675,0 30,-13.43 30,-30 0,-2.94125 -0.43125,-5.78 -1.22,-8.465 14.29125,-7.23375 24.095,-22.0475 24.095,-39.16125"
       style="fill:#80c929;fill-opacity:1;fill-rule:nonzero;stroke:none"
       id="path3709" />
    <path
       inkscape:connector-curvature="0"
       d="m 159.83536,513.91566 c 2.1425,5.54375 5.1025,10.6925 8.66875,15.33625 3.565,4.645 7.7175,8.7875 12.2325,12.4475 4.51875,3.66 9.3975,6.84625 14.4925,9.5925 2.5475,1.3725 5.15,2.63625 7.79,3.78125 1.32,0.57125 2.65,1.11375 3.98375,1.61875 1.30375,0.4925 2.735,1.00125 3.9075,1.34125 l -2.92625,8.34125 c -1.6325,-0.6825 -2.95625,-1.3375 -4.38125,-2.0575 -1.395,-0.7125 -2.7625,-1.45375 -4.1125,-2.22375 -2.6975,-1.5375 -5.3175,-3.1875 -7.86125,-4.94125 -5.085,-3.5075 -9.86625,-7.44 -14.19875,-11.8125 -4.3275,-4.37125 -8.19875,-9.1925 -11.37,-14.4225 -3.17125,-5.2225 -5.6225,-10.8625 -7.17,-16.68625 l 0.945,-0.315"
       style="fill:#6f4420;fill-opacity:1;fill-rule:nonzero;stroke:none"
       id="path3711" />
    <path
       inkscape:connector-curvature="0"
       d="m 74.284982,588.29316 c 8.1465,8.30375 17.375,15.39625 27.154248,21.51625 9.78863,6.11875 20.13625,11.27125 30.76363,15.6825 10.63438,4.405 21.55875,8.0725 32.6325,11.11 5.5375,1.51625 11.11375,2.87375 16.7125,4.065 2.79875,0.595 5.60375,1.1475 8.4075,1.65 2.7725,0.495 5.67625,0.97375 8.2925,1.30375 l -2.06,12.58125 c -3.13,-0.66375 -5.935,-1.38 -8.85375,-2.15125 -2.8875,-0.77 -5.75125,-1.58625 -8.6,-2.44375 -5.695,-1.71625 -11.3275,-3.59375 -16.89875,-5.63 -11.13625,-4.075 -22.03475,-8.7725 -32.55725,-14.19375 -10.51363,-5.42625 -20.65963,-11.58125 -30.11763,-18.64875 -9.447248,-7.0625 -18.218248,-15.06 -25.706623,-24.08375 l 0.831125,-0.7575"
       style="fill:#6f4420;fill-opacity:1;fill-rule:nonzero;stroke:none"
       id="path3713" />
    <path
       inkscape:connector-curvature="0"
       d="m 136.92699,592.26316 c -1.18788,7.50875 0.0108,15.04875 2.6495,21.88375 1.31837,3.4275 2.9775,6.70875 4.89387,9.81125 0.95875,1.55 1.97875,3.06 3.05875,4.51125 0.53875,0.72625 1.0925,1.4375 1.65875,2.12875 0.55125,0.67 1.18,1.41 1.6825,1.92125 l -5.905,4.84125 c -0.68375,-0.975 -1.16625,-1.77875 -1.6985,-2.67125 -0.51462,-0.8725 -1.00338,-1.7525 -1.47113,-2.63875 -0.93612,-1.7725 -1.78812,-3.5775 -2.56399,-5.4125 -1.54975,-3.66375 -2.78075,-7.45375 -3.62113,-11.32125 -0.83487,-3.86625 -1.26613,-7.815 -1.17675,-11.73375 0.0879,-3.91625 0.71188,-7.8 1.874,-11.45875 l 0.61912,0.13875"
       style="fill:#6f4420;fill-opacity:1;fill-rule:nonzero;stroke:none"
       id="path3715" />
    <path
       inkscape:connector-curvature="0"
       d="m 316.55536,550.65816 c -7.18,7.565 -15.285,14.28625 -23.90375,20.2425 -8.625,5.95875 -17.76625,11.1775 -27.205,15.78375 -9.4425,4.60375 -19.18375,8.60375 -29.12125,12.065 -4.97,1.73 -9.99,3.32625 -15.0625,4.78 -2.53625,0.72625 -5.085,1.4175 -7.65375,2.06625 -2.59125,0.65 -5.09875,1.255 -7.85125,1.80625 l -1.50125,-9.46375 c 2.36625,-0.30625 4.94625,-0.74 7.4275,-1.18875 2.50375,-0.455 5.0075,-0.95375 7.50625,-1.49 4.9975,-1.07 9.975,-2.28875 14.9175,-3.64 9.88375,-2.70875 19.63875,-5.95875 29.155,-9.8225 9.51125,-3.86875 18.79125,-8.3575 27.6375,-13.62125 8.8425,-5.2625 17.25,-11.315 24.86875,-18.32375 l 0.78625,0.80625"
       style="fill:#6f4420;fill-opacity:1;fill-rule:nonzero;stroke:none"
       id="path3717" />
    <path
       inkscape:connector-curvature="0"
       d="m 270.75161,553.21066 c 0.49875,3.21875 0.51875,6.55125 0.0863,9.83375 -0.43125,3.28625 -1.29875,6.52375 -2.49,9.64 -1.19875,3.115 -2.71,6.1125 -4.46875,8.965 -0.88,1.42625 -1.82,2.81875 -2.82375,4.17375 -1.025,1.36875 -2.02125,2.6375 -3.29,3.98875 l -3.51,-3.78875 c 1.065,-0.88625 2.22875,-2.02875 3.27875,-3.13875 1.0675,-1.12625 2.08875,-2.3075 3.06,-3.53125 1.945,-2.44375 3.6875,-5.065 5.15375,-7.84125 2.93375,-5.53875 4.7075,-11.80875 4.46625,-18.2575 l 0.5375,-0.0438"
       style="fill:#6f4420;fill-opacity:1;fill-rule:nonzero;stroke:none"
       id="path3719" />
    <path
       inkscape:connector-curvature="0"
       d="m 365.78661,602.60566 c -10.19125,11.29125 -21.725,21.4225 -34.045,30.47625 -12.32625,9.06125 -25.43875,17.07375 -39.0175,24.2025 -13.58375,7.125 -27.635,13.37875 -42.005,18.845 -7.1875,2.7325 -14.45625,5.26625 -21.8075,7.5925 -3.675,1.1625 -7.3725,2.27125 -11.09875,3.32125 -1.86375,0.52375 -3.735,1.0325 -5.62,1.52375 -1.91125,0.49375 -3.72375,0.955 -5.79625,1.4175 l -2.6075,-14.34375 c 1.65125,-0.24125 3.54375,-0.57125 5.33125,-0.89625 1.815,-0.33125 3.63375,-0.68375 5.4525,-1.0525 3.6375,-0.74 7.27375,-1.5425 10.9,-2.40125 7.25625,-1.7175 14.4775,-3.65125 21.64375,-5.78375 14.33375,-4.27 28.4575,-9.34 42.215,-15.30375 13.7525,-5.97 27.1425,-12.845 39.885,-20.8325 12.73875,-7.98375 24.82375,-17.1 35.76625,-27.55375 l 0.80375,0.78875"
       style="fill:#6f4420;fill-opacity:1;fill-rule:nonzero;stroke:none"
       id="path3721" />
    <path
       inkscape:connector-curvature="0"
       d="m 325.05536,610.71816 c 0.68125,2.74125 0.95625,5.62125 0.8375,8.49375 -0.11875,2.87625 -0.61875,5.745 -1.41,8.53625 -0.795,2.78875 -1.87125,5.50375 -3.175,8.11 -0.65125,1.30375 -1.3575,2.58375 -2.12375,3.83375 -0.7825,1.2675 -1.545,2.44125 -2.5475,3.71875 l -3.59125,-3.27625 c 0.85,-0.825 1.78,-1.89125 2.60875,-2.91625 0.84375,-1.04375 1.645,-2.13 2.40125,-3.25 1.51125,-2.2375 2.8375,-4.615 3.91625,-7.10875 2.1575,-4.9725 3.2675,-10.505 2.62375,-16.065 l 0.46,-0.0762"
       style="fill:#6f4420;fill-opacity:1;fill-rule:nonzero;stroke:none"
       id="path3723" />
    <path
       inkscape:connector-curvature="0"
       d="m 324.71786,677.84566 c -4.3275,-6.2475 -10.405,-10.87375 -17.04125,-13.9975 -3.32375,-1.5675 -6.7925,-2.795 -10.325,-3.71625 -1.76625,-0.45875 -3.54875,-0.84625 -5.33375,-1.15 -0.8925,-0.15375 -1.78625,-0.285 -2.675,-0.395 -0.8625,-0.105 -1.82875,-0.20375 -2.5525,-0.22875 l 0.88375,-7.37375 c 1.1625,0.22625 2.0675,0.46875 3.06875,0.7425 0.97375,0.27125 1.93375,0.56375 2.885,0.8775 1.9025,0.62625 3.765,1.33375 5.59375,2.11375 3.65625,1.56125 7.16875,3.4325 10.455,5.63125 3.28125,2.20125 6.33,4.74125 8.9825,7.62375 2.65375,2.8775 4.89875,6.105 6.60125,9.5425 l -0.5425,0.33"
       style="fill:#6f4420;fill-opacity:1;fill-rule:nonzero;stroke:none"
       id="path3725" />
    <path
       inkscape:connector-curvature="0"
       d="m 213.89911,664.25816 c -2.4725,-32.04875 -2.915,-64.3025 -0.57375,-96.4525 1.17,-16.07125 3.0475,-32.10875 5.66,-48.05625 1.3025,-7.975 2.78875,-15.92625 4.40625,-23.86125 l 4.98375,-23.81625 -1.09625,-0.2575 -6.55625,23.4375 c -2.14875,7.835 -4.17125,15.71875 -6.01625,23.65 -3.695,15.86375 -6.67125,31.92375 -8.935,48.09875 -4.535,32.3575 -6.27375,65.13125 -5.9275,97.87 0.355,32.7475 2.76875,65.47625 6.70625,98.00375 3.60375,29.765 8.5025,59.365 14.36875,88.76625 l 27.4,0 c -8.335,-30.34125 -15.62,-60.98 -21.47,-91.90375 -5.97,-31.56125 -10.46625,-63.42375 -12.95,-95.47875"
       style="fill:#593117;fill-opacity:1;fill-rule:nonzero;stroke:none"
       id="path3727" />
    <path
       inkscape:connector-curvature="0"
       d="m 207.90661,663.95191 c -1.7325,-32.10625 -1.185,-64.39125 2.30125,-96.4675 1.73625,-16.0375 4.22,-32.0125 7.39625,-47.88375 1.58375,-7.935 3.3375,-15.8475 5.18,-23.75 1.82125,-7.905 3.79375,-15.79625 5.4075,-23.77875 l -1.09625,-0.25875 c -2.1275,7.8175 -4.61375,15.54375 -6.96125,23.32875 -2.3675,7.77625 -4.65375,15.5925 -6.77625,23.4625 -4.25375,15.73875 -7.835,31.69625 -10.67125,47.8075 -5.68875,32.22625 -8.43625,65.01375 -8.84625,97.825 -0.40875,32.82125 1.4775,65.67625 5.09,98.325 3.30375,29.88 8.0725,59.5925 13.935,89.07875 l 27.39625,0 c -8.32875,-30.34375 -15.47375,-61.0225 -21.00125,-92.00625 -5.6425,-31.6225 -9.61875,-63.56875 -11.35375,-95.6825"
       style="fill:#6f4420;fill-opacity:1;fill-rule:nonzero;stroke:none"
       id="path3729" />
    <path
       inkscape:connector-curvature="0"
       d="m 154.94661,550.72691 c -8.16375,1.47375 -14.07625,-1.445 -20.69237,-5.69 4.72362,-6.29125 9.24212,-11.0725 17.40487,-12.54375 8.17125,-1.47125 14.08375,1.43125 20.7025,5.6775 -4.72125,6.29 -9.25,11.0825 -17.415,12.55625"
       style="fill:#689d2e;fill-opacity:1;fill-rule:evenodd;stroke:none"
       id="path3731" />
    <path
       inkscape:connector-curvature="0"
       d="m 91.905982,578.40316 c -4.3535,7.06625 -10.470625,9.51375 -18.04975,11.61625 -1.527875,-7.71875 -2.075625,-14.27375 2.277375,-21.335 4.3535,-7.06875 10.462875,-9.53625 18.041503,-11.62875 1.53362,7.71 2.08837,14.28375 -2.269128,21.3475"
       style="fill:#55822d;fill-opacity:1;fill-rule:evenodd;stroke:none"
       id="path3733" />
    <path
       inkscape:connector-curvature="0"
       d="m 365.22286,586.52941 c 2.24875,7.9875 -0.0913,14.14875 -3.67875,21.14375 -6.7125,-4.09875 -11.9075,-8.1375 -14.15375,-16.1225 -2.2525,-7.99125 0.07,-14.1575 3.6625,-21.14875 6.71125,4.095 11.92125,8.14125 14.17,16.1275"
       style="fill:#55822d;fill-opacity:1;fill-rule:evenodd;stroke:none"
       id="path3735" />
    <path
       inkscape:connector-curvature="0"
       d="m 302.82036,534.74316 c -1.44625,-8.1725 1.49375,-14.0675 5.76,-20.67625 6.2725,4.745 11.0375,9.28125 12.48625,17.45 1.4425,8.17625 -1.47875,14.07625 -5.74875,20.68 -6.27125,-4.74125 -11.0525,-9.28375 -12.4975,-17.45375"
       style="fill:#689d2e;fill-opacity:1;fill-rule:evenodd;stroke:none"
       id="path3737" />
    <path
       inkscape:connector-curvature="0"
       d="m 299.09036,590.32691 c -5.13375,-6.52 -5.3275,-13.10625 -4.68875,-20.94375 7.77,1.22125 14.11625,2.965 19.24625,9.48125 5.13125,6.52625 5.34375,13.11125 4.7025,20.9475 -7.77,-1.21875 -14.1275,-2.96625 -19.26,-9.485"
       style="fill:#55822d;fill-opacity:1;fill-rule:evenodd;stroke:none"
       id="path3739" />
    <path
       inkscape:connector-curvature="0"
       d="m 368.91911,586.77191 c 6.1,-5.6275 12.6525,-6.33625 20.5175,-6.315 -0.61375,7.84625 -1.855,14.30875 -7.95125,19.93125 -6.10375,5.63 -12.64875,6.3575 -20.51,6.33 0.6075,-7.84125 1.84875,-14.31875 7.94375,-19.94625"
       style="fill:#55822d;fill-opacity:1;fill-rule:evenodd;stroke:none"
       id="path3741" />
    <path
       inkscape:connector-curvature="0"
       d="m 249.76786,552.94191 c -7.32,-3.91375 -10.1375,-9.87 -12.695,-17.3075 7.61,-1.99625 14.11875,-2.9425 21.43375,0.97 7.31625,3.9175 10.15375,9.86125 12.7025,17.3 -7.6025,2.00375 -14.12875,2.95375 -21.44125,-0.9625"
       style="fill:#55822d;fill-opacity:1;fill-rule:evenodd;stroke:none"
       id="path3743" />
    <path
       inkscape:connector-curvature="0"
       d="m 259.20911,695.17191 c 1.54625,-8.15375 -1.32125,-14.0875 -5.50375,-20.74625 -6.33,4.67 -11.15625,9.1425 -12.70125,17.28875 -1.545,8.155 1.30375,14.09625 5.4875,20.7525 6.33375,-4.66625 11.17125,-9.14625 12.7175,-17.295"
       style="fill:#689d2e;fill-opacity:1;fill-rule:evenodd;stroke:none"
       id="path3745" />
    <path
       inkscape:connector-curvature="0"
       d="m 139.03149,515.56941 c -7.50488,-3.545 -10.61713,-9.3525 -13.54976,-16.6475 7.5015,-2.37625 13.95413,-3.65125 21.45613,-0.1125 7.50625,3.54625 10.63875,9.34125 13.56125,16.63875 -7.4925,2.3825 -13.96125,3.66125 -21.46762,0.12125"
       style="fill:#689d2e;fill-opacity:1;fill-rule:evenodd;stroke:none"
       id="path3747" />
    <path
       inkscape:connector-curvature="0"
       d="m 240.40661,508.51316 c -7.26875,4.0025 -13.79875,3.1225 -21.42875,1.21875 2.47,-7.47375 5.2275,-13.44625 12.4875,-17.44625 7.27875,-4.00375 13.8075,-3.1425 21.4325,-1.23375 -2.4675,7.47125 -5.22625,13.45875 -12.49125,17.46125"
       style="fill:#689d2e;fill-opacity:1;fill-rule:evenodd;stroke:none"
       id="path3749" />
    <path
       inkscape:connector-curvature="0"
       d="m 73.587232,618.83066 c -6.6255,4.99375 -13.212875,5.05125 -21.037625,4.24625 1.38675,-7.74375 3.26175,-14.05125 9.887625,-19.0425 6.630375,-4.99375 13.215375,-5.06875 21.037125,-4.26125 -1.380375,7.74 -3.26025,14.065 -9.887125,19.0575"
       style="fill:#55822d;fill-opacity:1;fill-rule:evenodd;stroke:none"
       id="path3751" />
    <path
       inkscape:connector-curvature="0"
       d="m 327.76786,696.94191 c -2.4325,7.935 -7.7325,11.84625 -14.54,15.79 -3.42375,-7.0775 -5.605,-13.285 -3.17625,-21.21625 2.43625,-7.935 7.71875,-11.8625 14.5275,-15.79875 3.43,7.0725 5.62,13.29375 3.18875,21.225"
       style="fill:#689d2e;fill-opacity:1;fill-rule:evenodd;stroke:none"
       id="path3753" />
    <path
       inkscape:connector-curvature="0"
       d="m 149.70786,577.79816 c 1.5475,-8.15375 -1.32,-14.08875 -5.50375,-20.74625 -6.32937,4.66875 -11.1555,9.1425 -12.70037,17.29 -1.54588,8.15375 1.30412,14.095 5.48675,20.75375 6.3335,-4.6675 11.17237,-9.14875 12.71737,-17.2975"
       style="fill:#689d2e;fill-opacity:1;fill-rule:evenodd;stroke:none"
       id="path3755" />
    <path
       inkscape:connector-curvature="0"
       d="m 179.34411,592.13941 c 7.2675,4.00125 13.79875,3.12125 21.42875,1.2175 -2.47,-7.4725 -5.2275,-13.445 -12.4875,-17.44625 -7.27875,-4.00375 -13.8075,-3.1425 -21.4325,-1.2325 2.46625,7.46875 5.225,13.45875 12.49125,17.46125"
       style="fill:#689d2e;fill-opacity:1;fill-rule:evenodd;stroke:none"
       id="path3757" />
    <path
       inkscape:connector-curvature="0"
       d="m 225.78161,641.63941 c -7.26875,4 -13.79875,3.12 -21.42875,1.21625 2.47,-7.4725 5.2275,-13.445 12.48625,-17.44625 7.28,-4.00375 13.80875,-3.14125 21.43375,-1.2325 -2.4675,7.47 -5.225,13.45875 -12.49125,17.4625"
       style="fill:#689d2e;fill-opacity:1;fill-rule:evenodd;stroke:none"
       id="path3759" />
    <path
       inkscape:connector-curvature="0"
       d="m 174.46911,694.51441 c 7.2675,4.00125 13.79875,3.12125 21.42875,1.2175 -2.47,-7.4725 -5.22625,-13.445 -12.48625,-17.44625 -7.27875,-4.00375 -13.80875,-3.1425 -21.43375,-1.2325 2.46625,7.46875 5.225,13.4575 12.49125,17.46125"
       style="fill:#689d2e;fill-opacity:1;fill-rule:evenodd;stroke:none"
       id="path3761" />
    <path
       inkscape:connector-curvature="0"
       d="m 131.45874,654.09566 c 0.78812,-8.25875 5.19487,-13.16 11.0645,-18.3875 4.78087,6.245 8.16712,11.8875 7.37837,20.145 -0.78375,8.265 -5.17625,13.17625 -11.05025,18.4 -4.78075,-6.2425 -8.17925,-11.89625 -7.39263,-20.1575"
       style="fill:#689d2e;fill-opacity:1;fill-rule:evenodd;stroke:none"
       id="path3763" />
    <path
       inkscape:connector-curvature="0"
       d="m 128.09886,652.53691 c -7.71913,3.045 -14.08538,1.34125 -21.412,-1.51875 3.40425,-7.09375 6.8955,-12.6725 14.60975,-15.715 7.72462,-3.04875 14.09188,-1.3625 21.41213,1.5 -3.39688,7.09375 -6.8925,12.68625 -14.60988,15.73375"
       style="fill:#689d2e;fill-opacity:1;fill-rule:evenodd;stroke:none"
       id="path3765" />
  </g>
</svg>
